<svg xmlns="http://www.w3.org/2000/svg" xmlns:xlink="http://www.w3.org/1999/xlink" width="50" height="50" viewBox="0 0 50 50"><defs><style>.a,.b,.e{opacity:0.3;}.a{fill:url(#a);}.b,.c{fill:#1c2898;}.d{opacity:0.8;}.e,.f{fill:#ccc;}</style><radialGradient id="a" cx="0.5" cy="0.5" r="0.5" gradientUnits="objectBoundingBox"><stop offset="0"/><stop offset="0.795" stop-color="#000c20" stop-opacity="0.827"/><stop offset="1" stop-opacity="0"/></radialGradient></defs><g transform="translate(0 -836.6)"><g transform="translate(0 795.6)"><rect class="a" width="50" height="50" transform="translate(0 41)"/></g><g transform="translate(4.8 843)"><path class="b" d="M5,5V28.483H28.483V9.747L23.736,5ZM16.741,26.806a5.032,5.032,0,1,1,5.032-5.032A5.025,5.025,0,0,1,16.741,26.806Zm5.032-13.419H6.677V6.677h15.1Z" transform="translate(3.392 3.392)"/><path class="c" d="M26.486,3H6.355A3.354,3.354,0,0,0,3,6.355V29.842A3.354,3.354,0,0,0,6.355,33.2H29.842A3.365,3.365,0,0,0,33.2,29.842V9.71Zm3.355,26.842H6.355V6.355H25.094L29.842,11.1ZM18.1,18.1a5.033,5.033,0,1,0,5.033,5.033A5.026,5.026,0,0,0,18.1,18.1ZM8.033,8.033h15.1v6.71H8.033Z" transform="translate(2.035 2.035)"/></g><g class="d" transform="translate(4.8 843)"><path class="e" d="M5,5V28.483H28.483V9.747L23.736,5ZM16.741,26.806a5.032,5.032,0,1,1,5.032-5.032A5.025,5.025,0,0,1,16.741,26.806Zm5.032-13.419H6.677V6.677h15.1Z" transform="translate(3.392 3.392)"/><path class="f" d="M26.486,3H6.355A3.354,3.354,0,0,0,3,6.355V29.842A3.354,3.354,0,0,0,6.355,33.2H29.842A3.365,3.365,0,0,0,33.2,29.842V9.71Zm3.355,26.842H6.355V6.355H25.094L29.842,11.1ZM18.1,18.1a5.033,5.033,0,1,0,5.033,5.033A5.026,5.026,0,0,0,18.1,18.1ZM8.033,8.033h15.1v6.71H8.033Z" transform="translate(2.035 2.035)"/></g></g></svg>