<svg xmlns="http://www.w3.org/2000/svg" xmlns:xlink="http://www.w3.org/1999/xlink" width="50" height="50" viewBox="0 0 50 50"><defs><style>.a,.b,.e{opacity:0.3;}.a{fill:url(#a);}.b,.c{fill:#1c2898;}.d{opacity:0.8;}.e,.f{fill:#ccc;}</style><radialGradient id="a" cx="0.5" cy="0.5" r="0.5" gradientUnits="objectBoundingBox"><stop offset="0"/><stop offset="0.795" stop-color="#000c20" stop-opacity="0.827"/><stop offset="1" stop-opacity="0"/></radialGradient></defs><g transform="translate(0 -890.4)"><g transform="translate(0 849.4)"><rect class="a" width="50" height="50" transform="translate(0 41)"/></g><g transform="translate(9 899)"><path class="b" d="M14.987,10.1A6.046,6.046,0,0,0,8.7,3l4.152,4.152-5.7,5.7L3,8.7A6.008,6.008,0,0,0,9.909,15,5.962,5.962,0,0,0,12.6,13.9l12.71,12.71,1.182-1.182-12.7-12.7a5.853,5.853,0,0,0,1.2-2.633Z" transform="translate(1.03 1.03)"/><path class="c" d="M30.039,25.148,17.851,12.96A8.73,8.73,0,0,0,4.588,2.68L9.735,7.827,7.827,9.735,2.68,4.588a8.722,8.722,0,0,0,10.132,13.3L25.054,30.133a1.338,1.338,0,0,0,1.895,0l3.091-3.091a1.315,1.315,0,0,0,0-1.895ZM26.008,27.3,13.3,14.586a5.875,5.875,0,0,1-2.687,1.1,6.028,6.028,0,0,1-6.92-6.3L7.84,13.538l5.7-5.7L9.386,3.688a6.029,6.029,0,0,1,6.289,7.082,5.861,5.861,0,0,1-1.182,2.62l12.7,12.7Z" transform="translate(0.344 0.344)"/></g><g class="d" transform="translate(9 899)"><path class="e" d="M14.987,10.1A6.046,6.046,0,0,0,8.7,3l4.152,4.152-5.7,5.7L3,8.7A6.008,6.008,0,0,0,9.909,15,5.962,5.962,0,0,0,12.6,13.9l12.71,12.71,1.182-1.182-12.7-12.7a5.853,5.853,0,0,0,1.2-2.633Z" transform="translate(1.03 1.03)"/><path class="f" d="M30.039,25.148,17.851,12.96A8.73,8.73,0,0,0,4.588,2.68L9.735,7.827,7.827,9.735,2.68,4.588a8.722,8.722,0,0,0,10.132,13.3L25.054,30.133a1.338,1.338,0,0,0,1.895,0l3.091-3.091a1.315,1.315,0,0,0,0-1.895ZM26.008,27.3,13.3,14.586a5.875,5.875,0,0,1-2.687,1.1,6.028,6.028,0,0,1-6.92-6.3L7.84,13.538l5.7-5.7L9.386,3.688a6.029,6.029,0,0,1,6.289,7.082,5.861,5.861,0,0,1-1.182,2.62l12.7,12.7Z" transform="translate(0.344 0.344)"/></g></g></svg>