<svg xmlns="http://www.w3.org/2000/svg" xmlns:xlink="http://www.w3.org/1999/xlink" width="50" height="50" viewBox="0 0 50 50"><defs><style>.a,.b,.e{opacity:0.3;}.a{fill:url(#a);}.b,.c{fill:#1c2898;}.d{opacity:0.8;}.e,.f{fill:#ccc;}</style><radialGradient id="a" cx="0.5" cy="0.5" r="0.5" gradientUnits="objectBoundingBox"><stop offset="0"/><stop offset="0.795" stop-color="#000c20" stop-opacity="0.827"/><stop offset="1" stop-opacity="0"/></radialGradient></defs><g transform="translate(-1870 -223)"><g transform="translate(1870 182)"><rect class="a" width="50" height="50" transform="translate(0 41)"/></g><g transform="translate(1877.13 230.132)"><path class="b" d="M15.972,4A11.972,11.972,0,1,0,27.943,15.972,11.988,11.988,0,0,0,15.972,4ZM18.98,18.98,7.741,24.2l5.223-11.238L24.2,7.741Z" transform="translate(1.989 1.989)"/><path class="c" d="M16.966,2A14.966,14.966,0,1,0,31.933,16.966,14.972,14.972,0,0,0,16.966,2Zm0,26.939A11.973,11.973,0,1,1,28.939,16.966,11.989,11.989,0,0,1,16.966,28.939ZM8.735,25.2l11.24-5.223L25.2,8.735l-11.24,5.223Zm8.232-9.878a1.646,1.646,0,1,1-1.646,1.646A1.642,1.642,0,0,1,16.966,15.32Z" transform="translate(0.995 0.995)"/></g><g class="d" transform="translate(1877.13 230.132)"><path class="e" d="M15.972,4A11.972,11.972,0,1,0,27.943,15.972,11.988,11.988,0,0,0,15.972,4ZM18.98,18.98,7.741,24.2l5.223-11.238L24.2,7.741Z" transform="translate(1.989 1.989)"/><path class="f" d="M16.966,2A14.966,14.966,0,1,0,31.933,16.966,14.972,14.972,0,0,0,16.966,2Zm0,26.939A11.973,11.973,0,1,1,28.939,16.966,11.989,11.989,0,0,1,16.966,28.939ZM8.735,25.2l11.24-5.223L25.2,8.735l-11.24,5.223Zm8.232-9.878a1.646,1.646,0,1,1-1.646,1.646A1.642,1.642,0,0,1,16.966,15.32Z" transform="translate(0.995 0.995)"/></g></g></svg>