<svg xmlns="http://www.w3.org/2000/svg" xmlns:xlink="http://www.w3.org/1999/xlink" width="50" height="50" viewBox="0 0 50 50"><defs><style>.a,.b,.e{opacity:0.3;}.a{fill:url(#a);}.b,.c{fill:#1c2898;}.d{opacity:0.8;}.e,.f{fill:#ccc;}</style><radialGradient id="a" cx="0.5" cy="0.5" r="0.5" gradientUnits="objectBoundingBox"><stop offset="0"/><stop offset="0.795" stop-color="#000c20" stop-opacity="0.827"/><stop offset="1" stop-opacity="0"/></radialGradient></defs><g transform="translate(-1870 -890)"><g transform="translate(1870 849)"><rect class="a" width="50" height="50" transform="translate(0 41)"/></g><g transform="translate(1875.187 898.605)"><path class="b" d="M28.195,5H19.911v9.56l8.284,8.194ZM13.284,22.754V14.56L5,22.754Z" transform="translate(3.29 1.823)"/><path class="c" d="M29.513,3.73H21.227v2.73h8.285V24.207l-8.285-8.191V28.3h8.285a3.074,3.074,0,0,0,3.314-2.73V6.461A3.074,3.074,0,0,0,29.513,3.73ZM17.913,1H14.6V3.73H6.314A3.074,3.074,0,0,0,3,6.461V25.573A3.074,3.074,0,0,0,6.314,28.3H14.6v2.73h3.314ZM14.6,24.207H6.314L14.6,16.017Z" transform="translate(1.974 0.366)"/></g><g class="d" transform="translate(1875.187 898.605)"><path class="e" d="M28.195,5H19.911v9.56l8.284,8.194ZM13.284,22.754V14.56L5,22.754Z" transform="translate(3.29 1.823)"/><path class="f" d="M29.513,3.73H21.227v2.73h8.285V24.207l-8.285-8.191V28.3h8.285a3.074,3.074,0,0,0,3.314-2.73V6.461A3.074,3.074,0,0,0,29.513,3.73ZM17.913,1H14.6V3.73H6.314A3.074,3.074,0,0,0,3,6.461V25.573A3.074,3.074,0,0,0,6.314,28.3H14.6v2.73h3.314ZM14.6,24.207H6.314L14.6,16.017Z" transform="translate(1.974 0.366)"/></g></g></svg>