<svg xmlns="http://www.w3.org/2000/svg" xmlns:xlink="http://www.w3.org/1999/xlink" width="50" height="50" viewBox="0 0 50 50"><defs><style>.a,.b,.e{opacity:0.3;}.a{fill:url(#a);}.b,.c{fill:#1c2898;}.d{opacity:0.8;}.e,.f{fill:#ccc;}</style><radialGradient id="a" cx="0.5" cy="0.5" r="0.5" gradientUnits="objectBoundingBox"><stop offset="0"/><stop offset="0.795" stop-color="#000c20" stop-opacity="0.827"/><stop offset="1" stop-opacity="0"/></radialGradient></defs><g transform="translate(0 -942.2)"><g transform="translate(0 901.2)"><rect class="a" width="50" height="50" transform="translate(0 41)"/></g><g transform="translate(2.8 947.055)"><path class="b" d="M22.477,11.417l-.684-1.083A6.975,6.975,0,0,0,19.556,8.15l-1.128-.7-1.257-.267A9.317,9.317,0,0,0,15.4,7a8.8,8.8,0,0,0-1.738.183l-1.368.3-1.054.667A7.166,7.166,0,0,0,9,10.334l-.684,1.083L8.129,12.5A6.422,6.422,0,0,0,8,13.667v6.667A6.422,6.422,0,0,0,8.129,21.5l.185,1.083L9,23.668A7.589,7.589,0,0,0,15.4,27a7.629,7.629,0,0,0,6.4-3.334l.684-1.067.185-1.083a6.768,6.768,0,0,0,.129-1.183V13.667a6.422,6.422,0,0,0-.129-1.167l-.185-1.083ZM19.094,22H11.7V18.668h7.4Zm0-6.667H11.7V12h7.4Z" transform="translate(6.783 4.659)"/><path class="c" d="M33.565,11.33H28.373A10.463,10.463,0,0,0,25.01,8.065l3.012-2.716L25.416,3l-4.01,3.615a12.374,12.374,0,0,0-2.624-.283,12.072,12.072,0,0,0-2.605.283L12.149,3,9.544,5.349l2.993,2.716A10.59,10.59,0,0,0,9.192,11.33H4v3.332H7.862A10,10,0,0,0,7.7,16.328v1.666H4v3.332H7.7v1.666a10,10,0,0,0,.166,1.666H4V27.99H9.192a11.345,11.345,0,0,0,9.59,5,11.345,11.345,0,0,0,9.59-5h5.192V24.658H29.7a10,10,0,0,0,.166-1.666V21.326h3.7V17.994h-3.7V16.328a10,10,0,0,0-.166-1.666h3.862Zm-7.391,6.664v5a6.419,6.419,0,0,1-.129,1.166l-.185,1.083-.684,1.083a7.584,7.584,0,0,1-6.394,3.332,7.625,7.625,0,0,1-6.394-3.332l-.684-1.066-.185-1.083a6.765,6.765,0,0,1-.129-1.183V16.328a6.419,6.419,0,0,1,.129-1.166l.185-1.083L12.389,13a7.162,7.162,0,0,1,2.236-2.182l1.053-.65,1.367-.3a7.721,7.721,0,0,1,1.737-.2,7.882,7.882,0,0,1,1.755.2l1.257.267,1.127.7a6.8,6.8,0,0,1,2.236,2.182l.7,1.083.185,1.083a6.087,6.087,0,0,1,.129,1.15v1.666ZM15.087,21.326h7.391v3.332H15.087Zm0-6.664h7.391v3.332H15.087Z" transform="translate(3.396 2.001)"/></g><g class="d" transform="translate(2.8 947.055)"><path class="e" d="M22.477,11.417l-.684-1.083A6.975,6.975,0,0,0,19.556,8.15l-1.128-.7-1.257-.267A9.317,9.317,0,0,0,15.4,7a8.8,8.8,0,0,0-1.738.183l-1.368.3-1.054.667A7.166,7.166,0,0,0,9,10.334l-.684,1.083L8.129,12.5A6.422,6.422,0,0,0,8,13.667v6.667A6.422,6.422,0,0,0,8.129,21.5l.185,1.083L9,23.668A7.589,7.589,0,0,0,15.4,27a7.629,7.629,0,0,0,6.4-3.334l.684-1.067.185-1.083a6.768,6.768,0,0,0,.129-1.183V13.667a6.422,6.422,0,0,0-.129-1.167l-.185-1.083ZM19.094,22H11.7V18.668h7.4Zm0-6.667H11.7V12h7.4Z" transform="translate(6.783 4.659)"/><path class="f" d="M33.565,11.33H28.373A10.463,10.463,0,0,0,25.01,8.065l3.012-2.716L25.416,3l-4.01,3.615a12.374,12.374,0,0,0-2.624-.283,12.072,12.072,0,0,0-2.605.283L12.149,3,9.544,5.349l2.993,2.716A10.59,10.59,0,0,0,9.192,11.33H4v3.332H7.862A10,10,0,0,0,7.7,16.328v1.666H4v3.332H7.7v1.666a10,10,0,0,0,.166,1.666H4V27.99H9.192a11.345,11.345,0,0,0,9.59,5,11.345,11.345,0,0,0,9.59-5h5.192V24.658H29.7a10,10,0,0,0,.166-1.666V21.326h3.7V17.994h-3.7V16.328a10,10,0,0,0-.166-1.666h3.862Zm-7.391,6.664v5a6.419,6.419,0,0,1-.129,1.166l-.185,1.083-.684,1.083a7.584,7.584,0,0,1-6.394,3.332,7.625,7.625,0,0,1-6.394-3.332l-.684-1.066-.185-1.083a6.765,6.765,0,0,1-.129-1.183V16.328a6.419,6.419,0,0,1,.129-1.166l.185-1.083L12.389,13a7.162,7.162,0,0,1,2.236-2.182l1.053-.65,1.367-.3a7.721,7.721,0,0,1,1.737-.2,7.882,7.882,0,0,1,1.755.2l1.257.267,1.127.7a6.8,6.8,0,0,1,2.236,2.182l.7,1.083.185,1.083a6.087,6.087,0,0,1,.129,1.15v1.666ZM15.087,21.326h7.391v3.332H15.087Zm0-6.664h7.391v3.332H15.087Z" transform="translate(3.396 2.001)"/></g></g></svg>