<svg xmlns="http://www.w3.org/2000/svg" xmlns:xlink="http://www.w3.org/1999/xlink" width="50" height="50" viewBox="0 0 50 50"><defs><style>.a{opacity:0.67;}.b{opacity:0.3;fill:url(#a);}.c{fill:#1c2898;}.d{opacity:0.8;}.e{fill:#ccc;}</style><radialGradient id="a" cx="0.5" cy="0.5" r="0.5" gradientUnits="objectBoundingBox"><stop offset="0"/><stop offset="0.795" stop-color="#000c20" stop-opacity="0.827"/><stop offset="1" stop-opacity="0"/></radialGradient></defs><g transform="translate(-1870 -67)"><g class="a" transform="translate(1870 26)"><rect class="b" width="50" height="50" transform="translate(0 41)"/></g><g transform="translate(1875 72)"><path class="c" d="M24.336,21.776H22.988l-.478-.461a11.112,11.112,0,1,0-1.195,1.195l.461.478v1.348l8.534,8.517,2.543-2.543Zm-10.241,0a7.681,7.681,0,1,1,7.681-7.681A7.671,7.671,0,0,1,14.095,21.776Z" transform="translate(2.127 2.129)"/></g><g class="d" transform="translate(1875 72)"><path class="e" d="M24.336,21.776H22.988l-.478-.461a11.112,11.112,0,1,0-1.195,1.195l.461.478v1.348l8.534,8.517,2.543-2.543Zm-10.241,0a7.681,7.681,0,1,1,7.681-7.681A7.671,7.671,0,0,1,14.095,21.776Z" transform="translate(2.127 2.129)"/></g></g></svg>