<svg xmlns="http://www.w3.org/2000/svg" xmlns:xlink="http://www.w3.org/1999/xlink" width="50" height="50" viewBox="0 0 50 50"><defs><style>.a{opacity:0.3;fill:url(#a);}.b{fill:#1c2898;}.c{opacity:0.8;}.d{fill:#ccc;}</style><radialGradient id="a" cx="0.5" cy="0.5" r="0.5" gradientUnits="objectBoundingBox"><stop offset="0"/><stop offset="0.795" stop-color="#000c20" stop-opacity="0.827"/><stop offset="1" stop-opacity="0"/></radialGradient></defs><g transform="translate(-1870 -301)"><g transform="translate(1870 260)"><rect class="a" width="50" height="50" transform="translate(0 41)"/></g><g transform="translate(1877.253 307.976)"><path class="b" d="M28.738,6.5H15.191L13.884,2H4.971A3,3,0,0,0,2,5V24.513a3,3,0,0,0,2.971,3h10.4l1.485,4.5H28.738a3,3,0,0,0,2.971-3V9.5A3,3,0,0,0,28.738,6.5ZM9.68,20.9a6.139,6.139,0,0,1,0-12.277,5.834,5.834,0,0,1,4.07,1.606l.1.09-1.827,1.771-.089-.075a3.209,3.209,0,0,0-2.258-.886,3.633,3.633,0,0,0,0,7.264A3.048,3.048,0,0,0,12.829,16.2H9.546V13.872h5.868l.015.105a4.76,4.76,0,0,1,.074.916A5.662,5.662,0,0,1,9.68,20.9Zm8.17-5.268h5.927A11.568,11.568,0,0,1,21.46,19.74a13.794,13.794,0,0,1-1.679-2.551H18.31ZM20.4,20.881l-.8.8-.966-3.347A14.984,14.984,0,0,0,20.4,20.881Zm9.819,8.135a1.5,1.5,0,0,1-1.485,1.5H18.34l2.971-3-1.2-4.157,1.367-1.381,3.981,4.037,1.084-1.1L22.514,20.9a13.145,13.145,0,0,0,2.852-5.268h1.887V14.067H21.846V12.506H20.3v1.561H17.389L15.637,8h13.1a1.5,1.5,0,0,1,1.485,1.5Z" transform="translate(0.972 1.003)"/></g><g class="c" transform="translate(1877.253 307.976)"><path class="d" d="M28.738,6.5H15.191L13.884,2H4.971A3,3,0,0,0,2,5V24.513a3,3,0,0,0,2.971,3h10.4l1.485,4.5H28.738a3,3,0,0,0,2.971-3V9.5A3,3,0,0,0,28.738,6.5ZM9.68,20.9a6.139,6.139,0,0,1,0-12.277,5.834,5.834,0,0,1,4.07,1.606l.1.09-1.827,1.771-.089-.075a3.209,3.209,0,0,0-2.258-.886,3.633,3.633,0,0,0,0,7.264A3.048,3.048,0,0,0,12.829,16.2H9.546V13.872h5.868l.015.105a4.76,4.76,0,0,1,.074.916A5.662,5.662,0,0,1,9.68,20.9Zm8.17-5.268h5.927A11.568,11.568,0,0,1,21.46,19.74a13.794,13.794,0,0,1-1.679-2.551H18.31ZM20.4,20.881l-.8.8-.966-3.347A14.984,14.984,0,0,0,20.4,20.881Zm9.819,8.135a1.5,1.5,0,0,1-1.485,1.5H18.34l2.971-3-1.2-4.157,1.367-1.381,3.981,4.037,1.084-1.1L22.514,20.9a13.145,13.145,0,0,0,2.852-5.268h1.887V14.067H21.846V12.506H20.3v1.561H17.389L15.637,8h13.1a1.5,1.5,0,0,1,1.485,1.5Z" transform="translate(0.972 1.003)"/></g></g></svg>