<svg xmlns="http://www.w3.org/2000/svg" xmlns:xlink="http://www.w3.org/1999/xlink" width="50" height="50" viewBox="0 0 50 50"><defs><style>.a{opacity:0.3;fill:url(#a);}.b{fill:#1c2898;}.c{opacity:0.8;}.d{fill:#ccc;}</style><radialGradient id="a" cx="0.5" cy="0.5" r="0.5" gradientUnits="objectBoundingBox"><stop offset="0"/><stop offset="0.795" stop-color="#000c20" stop-opacity="0.827"/><stop offset="1" stop-opacity="0"/></radialGradient></defs><g transform="translate(0 -144.6)"><g transform="translate(0 103.6)"><rect class="a" width="50" height="50" transform="translate(0 41)"/></g><path class="b" d="M19.766,7.744H31.61v2.787H19.766Zm0,4.829H31.61V15.36H19.766Zm0,4.954H31.61v2.787H19.766Zm-14.8,3.406h8.883A2.886,2.886,0,0,0,16.8,18.146V9.787A2.886,2.886,0,0,0,13.844,7H4.961A2.886,2.886,0,0,0,2,9.787v8.36A2.886,2.886,0,0,0,4.961,20.933Zm1.851-5.922,1.851,2.1,2.591-3.149,3.331,4.18H4.221Z" transform="translate(8.183 164.131)"/><path class="b" d="M19.766,7.636H31.61v2.787H19.766Zm0,4.937H31.61V15.36H19.766Zm0,5H31.61v2.787H19.766Zm-14.8,3.364h8.883A2.886,2.886,0,0,0,16.8,18.146V9.787A2.886,2.886,0,0,0,13.844,7H4.961A2.886,2.886,0,0,0,2,9.787v8.36A2.886,2.886,0,0,0,4.961,20.933Zm1.851-5.922,1.851,2.1,2.591-3.149,3.331,4.18H4.221Z" transform="translate(8.183 148.139)"/><g class="c"><path class="d" d="M19.766,7.744H31.61v2.787H19.766Zm0,4.829H31.61V15.36H19.766Zm0,4.954H31.61v2.787H19.766Zm-14.8,3.406h8.883A2.886,2.886,0,0,0,16.8,18.146V9.787A2.886,2.886,0,0,0,13.844,7H4.961A2.886,2.886,0,0,0,2,9.787v8.36A2.886,2.886,0,0,0,4.961,20.933Zm1.851-5.922,1.851,2.1,2.591-3.149,3.331,4.18H4.221Z" transform="translate(8.183 164.131)"/><path class="d" d="M19.766,7.636H31.61v2.787H19.766Zm0,4.937H31.61V15.36H19.766Zm0,5H31.61v2.787H19.766Zm-14.8,3.364h8.883A2.886,2.886,0,0,0,16.8,18.146V9.787A2.886,2.886,0,0,0,13.844,7H4.961A2.886,2.886,0,0,0,2,9.787v8.36A2.886,2.886,0,0,0,4.961,20.933Zm1.851-5.922,1.851,2.1,2.591-3.149,3.331,4.18H4.221Z" transform="translate(8.183 148.139)"/></g></g></svg>