<svg xmlns="http://www.w3.org/2000/svg" xmlns:xlink="http://www.w3.org/1999/xlink" width="50" height="50" viewBox="0 0 50 50"><defs><style>.a,.b,.e{opacity:0.3;}.a{fill:url(#a);}.b,.c{fill:#1c2898;}.d{opacity:0.8;}.e,.f{fill:#ccc;}</style><radialGradient id="a" cx="0.5" cy="0.5" r="0.5" gradientUnits="objectBoundingBox"><stop offset="0"/><stop offset="0.795" stop-color="#000c20" stop-opacity="0.827"/><stop offset="1" stop-opacity="0"/></radialGradient></defs><g transform="translate(0 -994)"><g transform="translate(0 953)"><rect class="a" width="50" height="50" transform="translate(0 41)"/></g><g transform="translate(24.978 1018.479)"><path class="b" d="M27.626,6H4l11.813,9.312ZM4,9.732V28.393H27.626V9.732L15.813,19.063Z" transform="translate(-15.791 -16.598)"/><path class="c" d="M28.582,4H4.954C3.329,4,2,5.68,2,7.733v22.4c0,2.053,1.329,3.733,2.954,3.733H28.582c1.624,0,2.954-1.68,2.954-3.733V7.733C31.536,5.68,30.207,4,28.582,4Zm0,3.733L16.768,17.047,4.954,7.733Zm0,22.4H4.954V11.466L16.768,20.8l11.814-9.332Z" transform="translate(-16.746 -18.333)"/><path class="c" d="M7.025,12H9.537v-1H7.025A4.071,4.071,0,0,1,3,6.975a4.071,4.071,0,0,1,4.02-4.02,4.071,4.071,0,0,1,4.02,4.02v.719a.812.812,0,0,1-.754.789.812.812,0,0,1-.754-.789V6.975A2.513,2.513,0,1,0,8.8,8.748a1.861,1.861,0,0,0,1.487.739,1.765,1.765,0,0,0,1.759-1.794V6.975A5.025,5.025,0,1,0,7.025,12Zm0-3.517A1.507,1.507,0,1,1,8.532,6.975,1.505,1.505,0,0,1,7.025,8.482Z" transform="translate(-0.995 -0.97)"/></g><g class="d" transform="translate(24.978 1018.479)"><path class="e" d="M27.626,6H4l11.813,9.312ZM4,9.732V28.393H27.626V9.732L15.813,19.063Z" transform="translate(-15.791 -16.598)"/><path class="f" d="M28.582,4H4.954C3.329,4,2,5.68,2,7.733v22.4c0,2.053,1.329,3.733,2.954,3.733H28.582c1.624,0,2.954-1.68,2.954-3.733V7.733C31.536,5.68,30.207,4,28.582,4Zm0,3.733L16.768,17.047,4.954,7.733Zm0,22.4H4.954V11.466L16.768,20.8l11.814-9.332Z" transform="translate(-16.746 -18.333)"/><path class="f" d="M7.025,12H9.537v-1H7.025A4.071,4.071,0,0,1,3,6.975a4.071,4.071,0,0,1,4.02-4.02,4.071,4.071,0,0,1,4.02,4.02v.719a.812.812,0,0,1-.754.789.812.812,0,0,1-.754-.789V6.975A2.513,2.513,0,1,0,8.8,8.748a1.861,1.861,0,0,0,1.487.739,1.765,1.765,0,0,0,1.759-1.794V6.975A5.025,5.025,0,1,0,7.025,12Zm0-3.517A1.507,1.507,0,1,1,8.532,6.975,1.505,1.505,0,0,1,7.025,8.482Z" transform="translate(-0.995 -0.97)"/></g></g></svg>