<svg xmlns="http://www.w3.org/2000/svg" xmlns:xlink="http://www.w3.org/1999/xlink" width="50" height="50" viewBox="0 0 50 50"><defs><style>.a,.c,.f{opacity:0.3;}.a{fill:url(#a);}.b,.c{fill:#1c2898;}.d{opacity:0.8;}.e,.f{fill:#ccc;}</style><radialGradient id="a" cx="0.5" cy="0.5" r="0.5" gradientUnits="objectBoundingBox"><stop offset="0"/><stop offset="0.795" stop-color="#000c20" stop-opacity="0.827"/><stop offset="1" stop-opacity="0"/></radialGradient></defs><g transform="translate(0 -731.8)"><g transform="translate(0 690.8)"><rect class="a" width="50" height="50" transform="translate(0 41)"/></g><g transform="translate(8.553 736.15)"><path class="b" d="M28.448,5.379a12.934,12.934,0,0,0-4.8-.879A10.77,10.77,0,0,0,16.1,7.137,10.77,10.77,0,0,0,8.548,4.5,10.77,10.77,0,0,0,1,7.137V32.895c0,.44.343.879.686.879.137,0,.206-.088.343-.088a13.79,13.79,0,0,1,6.519-1.934A10.77,10.77,0,0,1,16.1,34.389a13.874,13.874,0,0,1,7.548-2.637A11.488,11.488,0,0,1,30.164,33.6a.506.506,0,0,0,.343.088c.343,0,.686-.44.686-.879V7.137A8.775,8.775,0,0,0,28.448,5.379ZM3.745,29.114V8.9a12.735,12.735,0,0,1,4.8-.879,14.306,14.306,0,0,1,6.176,1.741V29.976a14.306,14.306,0,0,0-6.176-1.741A12.735,12.735,0,0,0,3.745,29.114Zm24.7,0a12.735,12.735,0,0,0-4.8-.879,14.306,14.306,0,0,0-6.176,1.741V9.757a14.067,14.067,0,0,1,6.176-1.741,12.735,12.735,0,0,1,4.8.879Z" transform="translate(0.373 3.395)"/><path class="c" d="M13.984,8.241A14.317,14.317,0,0,0,7.806,6.5,12.745,12.745,0,0,0,3,7.379V27.6a12.745,12.745,0,0,1,4.806-.879,14.317,14.317,0,0,1,6.179,1.741Z" transform="translate(1.119 4.919)"/></g><g class="d" transform="translate(8.553 736.15)"><path class="e" d="M28.448,5.379a12.934,12.934,0,0,0-4.8-.879A10.77,10.77,0,0,0,16.1,7.137,10.77,10.77,0,0,0,8.548,4.5,10.77,10.77,0,0,0,1,7.137V32.895c0,.44.343.879.686.879.137,0,.206-.088.343-.088a13.79,13.79,0,0,1,6.519-1.934A10.77,10.77,0,0,1,16.1,34.389a13.874,13.874,0,0,1,7.548-2.637A11.488,11.488,0,0,1,30.164,33.6a.506.506,0,0,0,.343.088c.343,0,.686-.44.686-.879V7.137A8.775,8.775,0,0,0,28.448,5.379ZM3.745,29.114V8.9a12.735,12.735,0,0,1,4.8-.879,14.306,14.306,0,0,1,6.176,1.741V29.976a14.306,14.306,0,0,0-6.176-1.741A12.735,12.735,0,0,0,3.745,29.114Zm24.7,0a12.735,12.735,0,0,0-4.8-.879,14.306,14.306,0,0,0-6.176,1.741V9.757a14.067,14.067,0,0,1,6.176-1.741,12.735,12.735,0,0,1,4.8.879Z" transform="translate(0.373 3.395)"/><path class="f" d="M13.984,8.241A14.317,14.317,0,0,0,7.806,6.5,12.745,12.745,0,0,0,3,7.379V27.6a12.745,12.745,0,0,1,4.806-.879,14.317,14.317,0,0,1,6.179,1.741Z" transform="translate(1.119 4.919)"/></g></g></svg>