<svg xmlns="http://www.w3.org/2000/svg" xmlns:xlink="http://www.w3.org/1999/xlink" width="50" height="50" viewBox="0 0 50 50"><defs><style>.a,.b,.e{opacity:0.3;}.a{fill:url(#a);}.b,.c{fill:#1c2898;}.d{opacity:0.8;}.e,.f{fill:#ccc;}</style><radialGradient id="a" cx="0.5" cy="0.5" r="0.5" gradientUnits="objectBoundingBox"><stop offset="0"/><stop offset="0.795" stop-color="#000c20" stop-opacity="0.827"/><stop offset="1" stop-opacity="0"/></radialGradient></defs><g transform="translate(0 -196.4)"><g transform="translate(0 155.4)"><rect class="a" width="50" height="50" transform="translate(0 41)"/></g><g transform="translate(0 -5.396)"><path class="b" d="M3,1.4H13.718V26.177H3Z" transform="translate(9.877 213.505)"/><path class="c" d="M27.827-.631H3.721A2.756,2.756,0,0,0,1.042,2.182V26.4A2.756,2.756,0,0,0,3.721,29.21H27.827A2.756,2.756,0,0,0,30.505,26.4V2.182A2.756,2.756,0,0,0,27.827-.631ZM14.435,26.4H3.721V2.182H14.435Zm13.392,0H17.113V2.182H27.827ZM18.508,3.882h8.035v2.11H18.508Zm0,3.516h8.035v2.11H18.508Zm0,3.516h8.035v2.11H18.508Z" transform="translate(9.197 213.196)"/><path class="c" d="M27.827,29.21H3.721A2.756,2.756,0,0,1,1.042,26.4V2.182A2.756,2.756,0,0,1,3.721-.631H27.827a2.756,2.756,0,0,1,2.678,2.813V26.4A2.756,2.756,0,0,1,27.827,29.21ZM14.435,2.182H3.721V26.4H14.435Zm13.392,0H17.113V26.4H27.827ZM18.508,24.7h8.035v-2.11H18.508Zm0-3.516h8.035v-2.11H18.508Zm0-3.516h8.035v-2.11H18.508Z" transform="translate(9.197 213.196)"/><path class="c" d="M5.274,7.913l-.782-.941L3.4,8.38H7.782L6.37,6.5Zm3.9-4.119a1.794,1.794,0,1,0-1.8,1.794,1.768,1.768,0,0,0,.953-.279L9.576,6.554l.566-.566L8.9,4.747A1.778,1.778,0,0,0,9.177,3.794Zm-1.794,1a1,1,0,1,1,1-1A1,1,0,0,1,7.383,4.791Zm1,4.386H2.8V3.595H5.2a2.149,2.149,0,0,1,.231-.8H2.8a.8.8,0,0,0-.8.8V9.177a.8.8,0,0,0,.8.8H8.38a.8.8,0,0,0,.8-.8V6.717l-.8-.8Z" transform="translate(12.598 215.194)"/><path class="c" d="M5.274,7.913l-.782-.941L3.4,8.38H7.782L6.37,6.5Zm3.9-4.119a1.794,1.794,0,1,0-1.8,1.794,1.768,1.768,0,0,0,.953-.279L9.576,6.554l.566-.566L8.9,4.747A1.778,1.778,0,0,0,9.177,3.794Zm-1.794,1a1,1,0,1,1,1-1A1,1,0,0,1,7.383,4.791Zm1,4.386H2.8V3.595H5.2a2.149,2.149,0,0,1,.231-.8H2.8a.8.8,0,0,0-.8.8V9.177a.8.8,0,0,0,.8.8H8.38a.8.8,0,0,0,.8-.8V6.717l-.8-.8Z" transform="translate(12.598 227.194)"/></g><g class="d" transform="translate(0 -5.396)"><path class="e" d="M3,1.4H13.718V26.177H3Z" transform="translate(9.877 213.505)"/><path class="f" d="M27.827-.631H3.721A2.756,2.756,0,0,0,1.042,2.182V26.4A2.756,2.756,0,0,0,3.721,29.21H27.827A2.756,2.756,0,0,0,30.505,26.4V2.182A2.756,2.756,0,0,0,27.827-.631ZM14.435,26.4H3.721V2.182H14.435Zm13.392,0H17.113V2.182H27.827ZM18.508,3.882h8.035v2.11H18.508Zm0,3.516h8.035v2.11H18.508Zm0,3.516h8.035v2.11H18.508Z" transform="translate(9.197 213.196)"/><path class="f" d="M27.827,29.21H3.721A2.756,2.756,0,0,1,1.042,26.4V2.182A2.756,2.756,0,0,1,3.721-.631H27.827a2.756,2.756,0,0,1,2.678,2.813V26.4A2.756,2.756,0,0,1,27.827,29.21ZM14.435,2.182H3.721V26.4H14.435Zm13.392,0H17.113V26.4H27.827ZM18.508,24.7h8.035v-2.11H18.508Zm0-3.516h8.035v-2.11H18.508Zm0-3.516h8.035v-2.11H18.508Z" transform="translate(9.197 213.196)"/><path class="f" d="M5.274,7.913l-.782-.941L3.4,8.38H7.782L6.37,6.5Zm3.9-4.119a1.794,1.794,0,1,0-1.8,1.794,1.768,1.768,0,0,0,.953-.279L9.576,6.554l.566-.566L8.9,4.747A1.778,1.778,0,0,0,9.177,3.794Zm-1.794,1a1,1,0,1,1,1-1A1,1,0,0,1,7.383,4.791Zm1,4.386H2.8V3.595H5.2a2.149,2.149,0,0,1,.231-.8H2.8a.8.8,0,0,0-.8.8V9.177a.8.8,0,0,0,.8.8H8.38a.8.8,0,0,0,.8-.8V6.717l-.8-.8Z" transform="translate(12.598 215.194)"/><path class="f" d="M5.274,7.913l-.782-.941L3.4,8.38H7.782L6.37,6.5Zm3.9-4.119a1.794,1.794,0,1,0-1.8,1.794,1.768,1.768,0,0,0,.953-.279L9.576,6.554l.566-.566L8.9,4.747A1.778,1.778,0,0,0,9.177,3.794Zm-1.794,1a1,1,0,1,1,1-1A1,1,0,0,1,7.383,4.791Zm1,4.386H2.8V3.595H5.2a2.149,2.149,0,0,1,.231-.8H2.8a.8.8,0,0,0-.8.8V9.177a.8.8,0,0,0,.8.8H8.38a.8.8,0,0,0,.8-.8V6.717l-.8-.8Z" transform="translate(12.598 227.194)"/></g></g></svg>