<svg xmlns="http://www.w3.org/2000/svg" xmlns:xlink="http://www.w3.org/1999/xlink" width="50" height="50" viewBox="0 0 50 50"><defs><style>.a,.b,.e{opacity:0.3;}.a{fill:url(#a);}.b,.c{fill:#1c2898;}.d{opacity:0.8;}.e,.f{fill:#ccc;}</style><radialGradient id="a" cx="0.5" cy="0.5" r="0.5" gradientUnits="objectBoundingBox"><stop offset="0"/><stop offset="0.795" stop-color="#000c20" stop-opacity="0.827"/><stop offset="1" stop-opacity="0"/></radialGradient></defs><g transform="translate(-1870 -812)"><g transform="translate(1870 771)"><rect class="a" width="50" height="50" transform="translate(0 41)"/></g><g transform="translate(1878.592 820.676)"><path class="b" d="M3,3H5.723V5.723H3ZM24.783,24.783h2.723v2.723H24.783ZM24.783,3h2.723V5.723H24.783ZM3,24.783H5.723v2.723H3Z" transform="translate(1.087 1.087)"/><path class="c" d="M15.011,9.17,10.381,21.424h2.206l.994-2.723h4.752l1.008,2.723H21.56L16.917,9.17Zm-.817,7.815,1.784-5.215,1.77,5.215H14.194ZM22.785,3.723H9.17V1H1V9.17H3.723V22.785H1v8.17H9.17V28.232H22.785v2.723h8.17v-8.17H28.232V9.17h2.723V1h-8.17Zm-19.062,0H6.446V6.446H3.723ZM6.446,28.232H3.723V25.509H6.446Zm21.785,0H25.509V25.509h2.723ZM25.509,3.723h2.723V6.446H25.509Zm0,19.062H22.785v2.723H9.17V22.785H6.446V9.17H9.17V6.446H22.785V9.17h2.723Z" transform="translate(0.362 0.362)"/></g><g class="d" transform="translate(1878.592 820.676)"><path class="e" d="M3,3H5.723V5.723H3ZM24.783,24.783h2.723v2.723H24.783ZM24.783,3h2.723V5.723H24.783ZM3,24.783H5.723v2.723H3Z" transform="translate(1.087 1.087)"/><path class="f" d="M15.011,9.17,10.381,21.424h2.206l.994-2.723h4.752l1.008,2.723H21.56L16.917,9.17Zm-.817,7.815,1.784-5.215,1.77,5.215H14.194ZM22.785,3.723H9.17V1H1V9.17H3.723V22.785H1v8.17H9.17V28.232H22.785v2.723h8.17v-8.17H28.232V9.17h2.723V1h-8.17Zm-19.062,0H6.446V6.446H3.723ZM6.446,28.232H3.723V25.509H6.446Zm21.785,0H25.509V25.509h2.723ZM25.509,3.723h2.723V6.446H25.509Zm0,19.062H22.785v2.723H9.17V22.785H6.446V9.17H9.17V6.446H22.785V9.17h2.723Z" transform="translate(0.362 0.362)"/></g></g></svg>