<svg xmlns="http://www.w3.org/2000/svg" xmlns:xlink="http://www.w3.org/1999/xlink" width="50" height="50" viewBox="0 0 50 50"><defs><style>.a,.b,.e{opacity:0.3;}.a{fill:url(#a);}.b,.c{fill:#1c2898;}.d{opacity:0.8;}.e,.f{fill:#ccc;}</style><radialGradient id="a" cx="0.5" cy="0.5" r="0.5" gradientUnits="objectBoundingBox"><stop offset="0"/><stop offset="0.795" stop-color="#000c20" stop-opacity="0.827"/><stop offset="1" stop-opacity="0"/></radialGradient></defs><g transform="translate(0 -248.2)"><g transform="translate(0 207.2)"><rect class="a" width="50" height="50" transform="translate(0 41)"/></g><g transform="translate(5.206 257.419)"><path class="b" d="M27.729,21.735V10.18a17.994,17.994,0,0,0-9.157,4.7L16.365,17l-2.208-2.111A17.994,17.994,0,0,0,5,10.18V21.735a24.187,24.187,0,0,1,11.365,4.7,24.427,24.427,0,0,1,11.365-4.7Z" transform="translate(3.313 2.539)"/><ellipse class="b" cx="3.325" cy="3.325" rx="3.325" ry="3.325" transform="translate(16.352 3.988)"/><path class="c" d="M24.218,6.56C24.218,3.488,21.3,1,17.69,1s-6.529,2.488-6.529,5.56,2.922,5.56,6.529,5.56S24.218,9.632,24.218,6.56Zm-9.793,0A3.061,3.061,0,0,1,17.69,3.78a3.061,3.061,0,0,1,3.264,2.78A3.061,3.061,0,0,1,17.69,9.34,3.061,3.061,0,0,1,14.425,6.56ZM3,26.019a23.619,23.619,0,0,1,14.69,4.934,23.7,23.7,0,0,1,14.69-4.934V10.73a23.619,23.619,0,0,0-14.69,4.934A23.619,23.619,0,0,0,3,10.73ZM6.264,13.76a19.6,19.6,0,0,1,9.206,3.934l2.22,1.765,2.22-1.765a19.6,19.6,0,0,1,9.206-3.934v9.66A27.427,27.427,0,0,0,17.69,27.34,27.365,27.365,0,0,0,6.264,23.406Z" transform="translate(1.988 0.663)"/></g><g class="d" transform="translate(5.206 257.419)"><path class="e" d="M27.729,21.735V10.18a17.994,17.994,0,0,0-9.157,4.7L16.365,17l-2.208-2.111A17.994,17.994,0,0,0,5,10.18V21.735a24.187,24.187,0,0,1,11.365,4.7,24.427,24.427,0,0,1,11.365-4.7Z" transform="translate(3.313 2.539)"/><ellipse class="e" cx="3.325" cy="3.325" rx="3.325" ry="3.325" transform="translate(16.352 3.988)"/><path class="f" d="M24.218,6.56C24.218,3.488,21.3,1,17.69,1s-6.529,2.488-6.529,5.56,2.922,5.56,6.529,5.56S24.218,9.632,24.218,6.56Zm-9.793,0A3.061,3.061,0,0,1,17.69,3.78a3.061,3.061,0,0,1,3.264,2.78A3.061,3.061,0,0,1,17.69,9.34,3.061,3.061,0,0,1,14.425,6.56ZM3,26.019a23.619,23.619,0,0,1,14.69,4.934,23.7,23.7,0,0,1,14.69-4.934V10.73a23.619,23.619,0,0,0-14.69,4.934A23.619,23.619,0,0,0,3,10.73ZM6.264,13.76a19.6,19.6,0,0,1,9.206,3.934l2.22,1.765,2.22-1.765a19.6,19.6,0,0,1,9.206-3.934v9.66A27.427,27.427,0,0,0,17.69,27.34,27.365,27.365,0,0,0,6.264,23.406Z" transform="translate(1.988 0.663)"/></g></g></svg>