<svg xmlns="http://www.w3.org/2000/svg" xmlns:xlink="http://www.w3.org/1999/xlink" width="50" height="50" viewBox="0 0 50 50"><defs><style>.a,.b,.e{opacity:0.3;}.a{fill:url(#a);}.b,.c{fill:#1c2898;}.d{opacity:0.8;}.e,.f{fill:#ccc;}</style><radialGradient id="a" cx="0.5" cy="0.5" r="0.5" gradientUnits="objectBoundingBox"><stop offset="0"/><stop offset="0.795" stop-color="#000c20" stop-opacity="0.827"/><stop offset="1" stop-opacity="0"/></radialGradient></defs><g transform="translate(0 -41)"><rect class="a" width="50" height="50" transform="translate(0 41)"/><g transform="translate(5.106 45.493)"><path class="b" d="M4.51,17.493H12v2.518H4.51Zm2.3-10H4.51v2.518h2.3ZM4.51,25.013H12v-2.5H4.51ZM6.861,12.492H4.51v2.518H12V13.642H8.328a1.5,1.5,0,0,1-1.467-1.15Zm12.754,10V20.011H17.1v-2.5h2.518v-2.5h-2.5V13.642H14.58V27.514h5v-2.5" transform="translate(3.009 4.998)"/><path class="c" d="M28.009,25.324v2.451l2.067,1.234-.45.767-2.518-1.5V25.324ZM10.086,8.3h6.8V5.267h-6.8Zm4.535,1.5a2.243,2.243,0,1,0,.05,0ZM32.96,21.74a2.484,2.484,0,0,0-4.618-1.25H18.105v2.518h7.119a5.335,5.335,0,0,0-2.851,4.7H20.589l2.418,2.334,2.367-2.351H23.557a4.135,4.135,0,1,1,4.135,4.135,4.068,4.068,0,0,1-2.918-1.217l-.85.834a5.318,5.318,0,1,0,7.6-7.437A2.484,2.484,0,0,0,33.01,21.74ZM15.588,30.51h5a2.5,2.5,0,0,1-2.5,2.5H5.5A2.5,2.5,0,0,1,3,30.51V8A2.5,2.5,0,0,1,5.5,5.5H7.818V4.517A1.517,1.517,0,0,1,9.336,3h9.07L21.44,6.034v4.452h6.952a2.468,2.468,0,1,1,0,2.5H21.44V15.1a1.417,1.417,0,0,1,0,.383H23.49a2.484,2.484,0,1,1,0,2.5H18.155V16.621H15.588ZM9.336,15.1H19.923V6.651L17.788,4.517H9.336ZM5.518,13h2.3V10.486h-2.3ZM13,25.508H5.518v2.5H13Zm0-5H5.518v2.5H13Zm0-3.868H9.336A1.5,1.5,0,0,1,7.868,15.5H5.518v2.5H13Z" transform="translate(2.002 2.002)"/></g><g class="d" transform="translate(5.106 45.493)"><path class="e" d="M4.51,17.493H12v2.518H4.51Zm2.3-10H4.51v2.518h2.3ZM4.51,25.013H12v-2.5H4.51ZM6.861,12.492H4.51v2.518H12V13.642H8.328a1.5,1.5,0,0,1-1.467-1.15Zm12.754,10V20.011H17.1v-2.5h2.518v-2.5h-2.5V13.642H14.58V27.514h5v-2.5" transform="translate(3.009 4.998)"/><path class="f" d="M28.009,25.324v2.451l2.067,1.234-.45.767-2.518-1.5V25.324ZM10.086,8.3h6.8V5.267h-6.8Zm4.535,1.5a2.243,2.243,0,1,0,.05,0ZM32.96,21.74a2.484,2.484,0,0,0-4.618-1.25H18.105v2.518h7.119a5.335,5.335,0,0,0-2.851,4.7H20.589l2.418,2.334,2.367-2.351H23.557a4.135,4.135,0,1,1,4.135,4.135,4.068,4.068,0,0,1-2.918-1.217l-.85.834a5.318,5.318,0,1,0,7.6-7.437A2.484,2.484,0,0,0,33.01,21.74ZM15.588,30.51h5a2.5,2.5,0,0,1-2.5,2.5H5.5A2.5,2.5,0,0,1,3,30.51V8A2.5,2.5,0,0,1,5.5,5.5H7.818V4.517A1.517,1.517,0,0,1,9.336,3h9.07L21.44,6.034v4.452h6.952a2.468,2.468,0,1,1,0,2.5H21.44V15.1a1.417,1.417,0,0,1,0,.383H23.49a2.484,2.484,0,1,1,0,2.5H18.155V16.621H15.588ZM9.336,15.1H19.923V6.651L17.788,4.517H9.336ZM5.518,13h2.3V10.486h-2.3ZM13,25.508H5.518v2.5H13Zm0-5H5.518v2.5H13Zm0-3.868H9.336A1.5,1.5,0,0,1,7.868,15.5H5.518v2.5H13Z" transform="translate(2.002 2.002)"/></g></g></svg>