<svg xmlns="http://www.w3.org/2000/svg" xmlns:xlink="http://www.w3.org/1999/xlink" width="50" height="50" viewBox="0 0 50 50"><defs><style>.a,.b,.e{opacity:0.3;}.a{fill:url(#a);}.b,.c{fill:#1c2898;}.d{opacity:0.8;}.e,.f{fill:#ccc;}</style><radialGradient id="a" cx="0.5" cy="0.5" r="0.5" gradientUnits="objectBoundingBox"><stop offset="0"/><stop offset="0.795" stop-color="#000c20" stop-opacity="0.827"/><stop offset="1" stop-opacity="0"/></radialGradient></defs><g transform="translate(0 -786.8)"><g transform="translate(0 745.8)"><rect class="a" width="50" height="50" transform="translate(0 41)"/></g><g transform="translate(4.865 791)"><path class="b" d="M5,28.476H28.476V5H5ZM21.768,18.415h3.354v6.707H21.768ZM15.061,8.354h3.354V25.122H15.061ZM8.354,13.384h3.354V25.122H8.354Z" transform="translate(3.39 3.39)"/><path class="c" d="M29.834,3H6.354A3.364,3.364,0,0,0,3,6.354V29.834a3.364,3.364,0,0,0,3.354,3.354H29.834a3.364,3.364,0,0,0,3.354-3.354V6.354A3.364,3.364,0,0,0,29.834,3Zm0,26.834H6.354V6.354H29.834ZM9.708,14.74h3.354v11.74H9.708Zm6.708-5.031h3.354V26.479H16.417Zm6.708,10.063h3.354v6.708H23.125Z" transform="translate(2.034 2.034)"/></g><g class="d" transform="translate(4.865 791)"><path class="e" d="M5,28.476H28.476V5H5ZM21.768,18.415h3.354v6.707H21.768ZM15.061,8.354h3.354V25.122H15.061ZM8.354,13.384h3.354V25.122H8.354Z" transform="translate(3.39 3.39)"/><path class="f" d="M29.834,3H6.354A3.364,3.364,0,0,0,3,6.354V29.834a3.364,3.364,0,0,0,3.354,3.354H29.834a3.364,3.364,0,0,0,3.354-3.354V6.354A3.364,3.364,0,0,0,29.834,3Zm0,26.834H6.354V6.354H29.834ZM9.708,14.74h3.354v11.74H9.708Zm6.708-5.031h3.354V26.479H16.417Zm6.708,10.063h3.354v6.708H23.125Z" transform="translate(2.034 2.034)"/></g></g></svg>