<svg xmlns="http://www.w3.org/2000/svg" xmlns:xlink="http://www.w3.org/1999/xlink" width="50" height="50" viewBox="0 0 50 50"><defs><style>.a,.b,.e{opacity:0.3;}.a{fill:url(#a);}.b,.c{fill:#1c2898;}.d{opacity:0.8;}.e,.f{fill:#ccc;}</style><radialGradient id="a" cx="0.5" cy="0.5" r="0.5" gradientUnits="objectBoundingBox"><stop offset="0"/><stop offset="0.795" stop-color="#000c20" stop-opacity="0.827"/><stop offset="1" stop-opacity="0"/></radialGradient></defs><g transform="translate(0 -300)"><g transform="translate(0 259)"><rect class="a" width="50" height="50" transform="translate(0 41)"/></g><g transform="translate(6.998 307.698)"><ellipse class="b" cx="7.421" cy="7.564" rx="7.421" ry="7.564" transform="translate(15.083 6.304)"/><ellipse class="c" cx="2.226" cy="2.269" rx="2.226" ry="2.269" transform="translate(4.452 12.097)"/><path class="c" d="M21.537,2.17A10.478,10.478,0,0,0,11.153,12.754,10.5,10.5,0,0,0,19.8,23.172V29.13H7.934V24.593H9.417V18.545a1.5,1.5,0,0,0-1.483-1.512H3.483A1.5,1.5,0,0,0,2,18.545v6.048H3.483v7.56H27.218V29.13h-4.45V23.263a10.514,10.514,0,0,0,9.153-10.509A10.478,10.478,0,0,0,21.537,2.17Zm0,18.144a7.492,7.492,0,0,1-7.417-7.56,7.418,7.418,0,1,1,14.834,0A7.492,7.492,0,0,1,21.537,20.314Z" transform="translate(0.968 1.113)"/></g><g class="d" transform="translate(6.998 307.698)"><ellipse class="e" cx="7.421" cy="7.564" rx="7.421" ry="7.564" transform="translate(15.083 6.304)"/><ellipse class="f" cx="2.226" cy="2.269" rx="2.226" ry="2.269" transform="translate(4.452 12.097)"/><path class="f" d="M21.537,2.17A10.478,10.478,0,0,0,11.153,12.754,10.5,10.5,0,0,0,19.8,23.172V29.13H7.934V24.593H9.417V18.545a1.5,1.5,0,0,0-1.483-1.512H3.483A1.5,1.5,0,0,0,2,18.545v6.048H3.483v7.56H27.218V29.13h-4.45V23.263a10.514,10.514,0,0,0,9.153-10.509A10.478,10.478,0,0,0,21.537,2.17Zm0,18.144a7.492,7.492,0,0,1-7.417-7.56,7.418,7.418,0,1,1,14.834,0A7.492,7.492,0,0,1,21.537,20.314Z" transform="translate(0.968 1.113)"/></g></g></svg>