<svg xmlns="http://www.w3.org/2000/svg" xmlns:xlink="http://www.w3.org/1999/xlink" width="50" height="50" viewBox="0 0 50 50"><defs><style>.a{opacity:0.3;fill:url(#a);}.b{fill:#1c2898;}.c{opacity:0.8;}.d{fill:#ccc;}</style><radialGradient id="a" cx="0.5" cy="0.5" r="0.5" gradientUnits="objectBoundingBox"><stop offset="0"/><stop offset="0.795" stop-color="#000c20" stop-opacity="0.827"/><stop offset="1" stop-opacity="0"/></radialGradient></defs><g transform="translate(-1870 -734)"><g transform="translate(1870 693)"><rect class="a" width="50" height="50" transform="translate(0 41)"/></g><g transform="translate(1875 739)"><path class="b" d="M29.65,29.65h3.331v3.331H29.65Zm0-13.325h3.331v3.331H29.65Zm0,6.663h3.331v3.331H29.65ZM22.988,29.65h3.331v3.331H22.988ZM3,32.982H6.331V6.331h26.65V3H3ZM29.65,9.663h3.331v3.331H29.65ZM16.325,29.65h3.331v3.331H16.325Zm-6.663,0h3.331v3.331H9.663Z" transform="translate(1.997 1.997)"/><path class="b" d="M3,22.988H6.331v3.331H3ZM3,3H6.331V6.331H3ZM3,29.65H6.331v3.331H3Zm13.325,3.331h3.331V19.656H32.982V16.325H19.656V3H16.325V16.325H3v3.331H16.325ZM9.663,29.65h3.331v3.331H9.663ZM29.65,22.988h3.331v3.331H29.65ZM22.988,29.65h3.331v3.331H22.988Zm6.663,0h3.331v3.331H29.65ZM3,9.663H6.331v3.331H3Zm26.65,0h3.331v3.331H29.65ZM9.663,3h3.331V6.331H9.663ZM22.988,3h3.331V6.331H22.988ZM29.65,3h3.331V6.331H29.65Z" transform="translate(1.997 1.997)"/></g><g class="c" transform="translate(1875 739)"><path class="d" d="M29.65,29.65h3.331v3.331H29.65Zm0-13.325h3.331v3.331H29.65Zm0,6.663h3.331v3.331H29.65ZM22.988,29.65h3.331v3.331H22.988ZM3,32.982H6.331V6.331h26.65V3H3ZM29.65,9.663h3.331v3.331H29.65ZM16.325,29.65h3.331v3.331H16.325Zm-6.663,0h3.331v3.331H9.663Z" transform="translate(1.997 1.997)"/><path class="d" d="M3,22.988H6.331v3.331H3ZM3,3H6.331V6.331H3ZM3,29.65H6.331v3.331H3Zm13.325,3.331h3.331V19.656H32.982V16.325H19.656V3H16.325V16.325H3v3.331H16.325ZM9.663,29.65h3.331v3.331H9.663ZM29.65,22.988h3.331v3.331H29.65ZM22.988,29.65h3.331v3.331H22.988Zm6.663,0h3.331v3.331H29.65ZM3,9.663H6.331v3.331H3Zm26.65,0h3.331v3.331H29.65ZM9.663,3h3.331V6.331H9.663ZM22.988,3h3.331V6.331H22.988ZM29.65,3h3.331V6.331H29.65Z" transform="translate(1.997 1.997)"/></g></g></svg>