<svg xmlns="http://www.w3.org/2000/svg" xmlns:xlink="http://www.w3.org/1999/xlink" width="50" height="50" viewBox="0 0 50 50"><defs><style>.a,.b,.e{opacity:0.3;}.a{fill:url(#a);}.b,.c{fill:#1c2898;}.d{opacity:0.8;}.e,.f{fill:#ccc;}</style><radialGradient id="a" cx="0.5" cy="0.5" r="0.5" gradientUnits="objectBoundingBox"><stop offset="0"/><stop offset="0.795" stop-color="#000c20" stop-opacity="0.827"/><stop offset="1" stop-opacity="0"/></radialGradient></defs><g transform="translate(0 -92.8)"><g transform="translate(0 51.8)"><rect class="a" width="50" height="50" transform="translate(0 41)"/></g><g transform="translate(6.119 136) rotate(-90)"><path class="b" d="M0,6.534H22.87V0H0ZM3.267.817a2.45,2.45,0,1,1-2.45,2.45A2.447,2.447,0,0,1,3.267.817ZM0,22.87H22.87V16.336H0Zm3.267-5.718A2.45,2.45,0,1,1,.817,19.6,2.447,2.447,0,0,1,3.267,17.153Z" transform="translate(6.065 7.569)"/><path class="c" d="M27.775,16.338H1.634A1.639,1.639,0,0,0,0,17.972v9.8a1.639,1.639,0,0,0,1.634,1.634H27.775a1.639,1.639,0,0,0,1.634-1.634v-9.8A1.639,1.639,0,0,0,27.775,16.338Zm-1.634,9.8H3.268V19.606H26.141ZM6.535,25.325a2.451,2.451,0,1,0-2.451-2.451A2.447,2.447,0,0,0,6.535,25.325ZM27.775,0H1.634A1.639,1.639,0,0,0,0,1.634v9.8a1.639,1.639,0,0,0,1.634,1.634H27.775a1.639,1.639,0,0,0,1.634-1.634v-9.8A1.639,1.639,0,0,0,27.775,0ZM26.141,9.8H3.268V3.268H26.141ZM6.535,8.986A2.451,2.451,0,1,0,4.085,6.535,2.447,2.447,0,0,0,6.535,8.986Z" transform="translate(2.795 4.299)"/></g><g class="d" transform="translate(6.119 136) rotate(-90)"><path class="e" d="M0,6.534H22.87V0H0ZM3.267.817a2.45,2.45,0,1,1-2.45,2.45A2.447,2.447,0,0,1,3.267.817ZM0,22.87H22.87V16.336H0Zm3.267-5.718A2.45,2.45,0,1,1,.817,19.6,2.447,2.447,0,0,1,3.267,17.153Z" transform="translate(6.065 7.569)"/><path class="f" d="M27.775,16.338H1.634A1.639,1.639,0,0,0,0,17.972v9.8a1.639,1.639,0,0,0,1.634,1.634H27.775a1.639,1.639,0,0,0,1.634-1.634v-9.8A1.639,1.639,0,0,0,27.775,16.338Zm-1.634,9.8H3.268V19.606H26.141ZM6.535,25.325a2.451,2.451,0,1,0-2.451-2.451A2.447,2.447,0,0,0,6.535,25.325ZM27.775,0H1.634A1.639,1.639,0,0,0,0,1.634v9.8a1.639,1.639,0,0,0,1.634,1.634H27.775a1.639,1.639,0,0,0,1.634-1.634v-9.8A1.639,1.639,0,0,0,27.775,0ZM26.141,9.8H3.268V3.268H26.141ZM6.535,8.986A2.451,2.451,0,1,0,4.085,6.535,2.447,2.447,0,0,0,6.535,8.986Z" transform="translate(2.795 4.299)"/></g></g></svg>