<svg xmlns="http://www.w3.org/2000/svg" width="50.976" height="50.976" viewBox="0 0 50.976 50.976"><g transform="translate(-1 -3.144)"><path d="M23.5,0a4.373,4.373,0,0,0-2.66.659A17.626,17.626,0,0,0,19.387,2.2a13.349,13.349,0,0,0,2.173-.789A14.171,14.171,0,0,1,24.12.01C23.914.006,23.706,0,23.5,0Zm6.165.137q-.108,0-.217.006c-1.219.063-2.115,1.059-2.882,1.98a5.024,5.024,0,0,1-.768.731A3.874,3.874,0,0,1,27.548,2.7c1.32.184,2.877.273,3.855-.681-.944.446-1.989-.024-2.968-.052a3.342,3.342,0,0,0-1.457.278l0-.033c.341-.215.71-.35,1.06-.538.955-.516,1.8-1.435,3-1.212A2.629,2.629,0,0,0,29.661.137ZM20.738.22a3.071,3.071,0,0,0-1.294.339c-1.1.525-1.549,1.788-1.9,2.932a5.022,5.022,0,0,1-.43.969,3.874,3.874,0,0,1,1.561-.816c1.29-.335,2.763-.849,3.3-2.1-.7.773-1.847.739-2.762,1.088a3.341,3.341,0,0,0-1.24.814l-.016-.029c.232-.329.523-.595.773-.9C19.41,1.667,19.836.5,21.037.24a2.048,2.048,0,0,0-.3-.02Zm7.395,0a4.893,4.893,0,0,0-3.021,1.357c-1.056,1.056-1.186,2.4-2.1,3.468C24.2,4.167,25.805,4.3,27.165,3.84a5.136,5.136,0,0,0,1.48-.813,1.765,1.765,0,0,1-.757.148c-1.138-.03-2.373-.173-3.29.479a3.933,3.933,0,0,1-.4.275c-.037-.014-.008-.044-.011-.061l1.046-.9C26.254,2.089,26.809.533,28.194.247c-.015-.022-.04-.018-.062-.025ZM31.359.69a3.226,3.226,0,0,0-.667.078,17.627,17.627,0,0,0-1.928.866,13.349,13.349,0,0,0,2.309.1,14.171,14.171,0,0,1,2.9-.312A6.355,6.355,0,0,0,31.359.69Zm-13.047.436a.25.25,0,0,0-.05.007,4.893,4.893,0,0,0-2.271,2.409c-.571,1.379-.177,2.671-.614,4.008.764-1.267,2.3-1.757,3.377-2.7a5.135,5.135,0,0,0,1.056-1.318,1.765,1.765,0,0,1-.643.426c-1.063.407-2.259.748-2.856,1.7a3.932,3.932,0,0,1-.262.406c-.039,0-.024-.037-.034-.052l.621-1.232c.605-1.2.523-2.85,1.693-3.645a.041.041,0,0,0-.017-.006Zm6.183.687a5.418,5.418,0,0,0-1.014.564A6.352,6.352,0,0,0,21.61,4.623c-.559,1.029-.35,2.375-.683,3.5l.011.1A4.032,4.032,0,0,1,22.16,7.045c.773-.434,1.573-.806,2.311-1.319A7.553,7.553,0,0,0,26.1,4.354a3.389,3.389,0,0,1-.991.449c-1.349.29-2.854.708-3.523,2.119-.02,0-.046.005-.053-.016a10.78,10.78,0,0,1,.824-1.382c.721-1.234.785-2.8,2.135-3.71Zm-10.021.66a5.178,5.178,0,0,0-2.785,1.856A17.627,17.627,0,0,0,10.938,6.3a13.349,13.349,0,0,0,1.706-1.56,14.171,14.171,0,0,1,1.83-2.271Zm21.477.444a4.387,4.387,0,0,0-1.66.338c-1.379.571-2.014,1.764-3.268,2.4,1.436-.356,2.867.381,4.3.476A5.136,5.136,0,0,0,37,5.944a1.765,1.765,0,0,1-.756-.153c-1.04-.464-2.126-1.068-3.223-.816a3.933,3.933,0,0,1-.472.1c-.028-.027.01-.043.013-.061l1.311-.432c1.277-.421,2.385-1.645,3.775-1.38-.006-.026-.03-.032-.047-.047a5.923,5.923,0,0,0-1.649-.24Zm-2.464.316a6.767,6.767,0,0,0-1.009.136A6.352,6.352,0,0,0,29.89,4.728c-.911.737-1.232,2.06-1.97,2.969l-.027.094a4.031,4.031,0,0,1,1.578-.615c.88-.1,1.762-.142,2.64-.334A7.552,7.552,0,0,0,34.143,6.2a3.389,3.389,0,0,1-1.087.035c-1.358-.248-2.907-.438-4.066.609-.019-.005-.045-.013-.042-.035a10.78,10.78,0,0,1,1.29-.961c1.138-.864,1.8-2.287,3.392-2.611-.048,0-.1,0-.144,0Zm4.484.216a6.019,6.019,0,0,0-2.549.864,5.023,5.023,0,0,1-.989.381,3.874,3.874,0,0,1,1.681.527c1.149.675,2.554,1.353,3.822.846-1.043.051-1.828-.783-2.722-1.184a3.342,3.342,0,0,0-1.453-.3l.009-.032c.4-.069.79-.051,1.185-.092,1.08-.112,2.208-.639,3.239.03a2.794,2.794,0,0,0-1.352-.9,2.443,2.443,0,0,0-.871-.137Zm-26.257.416a2.794,2.794,0,0,0-1.35.9c-.818.907-.747,2.244-.638,3.437A5.023,5.023,0,0,1,9.7,9.267a3.874,3.874,0,0,1,1.129-1.351c1.063-.8,2.228-1.842,2.244-3.207-.352.983-1.423,1.39-2.135,2.062A3.341,3.341,0,0,0,10.1,8l-.026-.02c.089-.393.255-.75.369-1.13.31-1.04.255-2.285,1.268-2.981Zm3.8.13a5.417,5.417,0,0,0-.721.909A6.352,6.352,0,0,0,13.921,7.7c-.123,1.165.585,2.328.707,3.492l.047.085a4.031,4.031,0,0,1,.681-1.551c.549-.7,1.145-1.347,1.63-2.1a7.552,7.552,0,0,0,.983-1.891,3.389,3.389,0,0,1-.744.794c-1.135.785-2.365,1.746-2.444,3.306-.017.01-.041.022-.055,0a10.779,10.779,0,0,1,.233-1.592c.194-1.416-.347-2.888.552-4.245Zm14.066.521A5.258,5.258,0,0,0,27.622,5.6a5.3,5.3,0,0,0-1.395,2.517c-.276.979-.365,2.049-.6,2.933a8.764,8.764,0,0,1,.817-.849c1.434-1.057,3.372-1.6,4.566-2.9a9.985,9.985,0,0,1-2.5.7,3.884,3.884,0,0,0-1.72,1.071,3.071,3.071,0,0,1-.374.449,3.729,3.729,0,0,1,.535-.914c.957-1.327,1.1-3.338,2.62-4.1Zm-8.337.032A5.258,5.258,0,0,0,19.85,6.3a5.3,5.3,0,0,0-.325,2.86c.12,1.01.447,2.033.57,2.939a8.763,8.763,0,0,1,.43-1.1c.92-1.526,2.5-2.77,3.11-4.425A9.985,9.985,0,0,1,21.6,8.182,3.884,3.884,0,0,0,20.416,9.83a3.071,3.071,0,0,1-.174.558,3.73,3.73,0,0,1,.145-1.049c.376-1.592-.259-3.506.852-4.79Zm17.983.057c-.53.009-1.052.129-1.579.1a13.347,13.347,0,0,0,2.094.979,14.171,14.171,0,0,1,2.8.822,5.178,5.178,0,0,0-2.78-1.863,2.816,2.816,0,0,0-.533-.037ZM9.554,5.726c-.026,0-.041.016-.062.026A4.893,4.893,0,0,0,8.315,8.847c0,1.493.859,2.536.966,3.938.221-1.463,1.449-2.5,2.085-3.79a5.136,5.136,0,0,0,.471-1.621,1.765,1.765,0,0,1-.431.64c-.826.783-1.8,1.556-1.988,2.665a3.93,3.93,0,0,1-.087.475c-.036.016-.036-.026-.051-.036l.1-1.376c.1-1.341-.608-2.833.17-4.015ZM26.332,6.844a5.546,5.546,0,0,0-2.21,3.686c-.256,1.351.385,2.68.485,4.021.428-1.454,1.68-2.166,2.636-3.132A8.79,8.79,0,0,0,28.69,9.274c-.914,1.055-2.5,1.422-3.283,2.622a6.186,6.186,0,0,0-.582,1.253l-.02-.008a3.956,3.956,0,0,1,.207-.987c.547-1.761-.13-3.789,1.32-5.309Zm13.151.81a7.578,7.578,0,0,0-1.984.339c-1.123.332-1.927,1.432-2.956,1.989l-.061.076a4.031,4.031,0,0,1,1.693.035c.853.24,1.682.543,2.567.7a7.552,7.552,0,0,0,2.124.184,3.389,3.389,0,0,1-1.018-.383c-1.159-.749-2.519-1.517-3.989-.993-.016-.012-.036-.029-.026-.049a10.781,10.781,0,0,1,1.56-.394c1.382-.363,2.536-1.425,4.133-1.114a5.418,5.418,0,0,0-1.116-.318,4.567,4.567,0,0,0-.927-.073Zm-2.763,0a4.855,4.855,0,0,0-1.65.276,5.3,5.3,0,0,0-2.252,1.792c-.63.8-1.121,1.753-1.675,2.481a8.764,8.764,0,0,1,1.08-.471c1.729-.428,3.728-.189,5.328-.93a9.984,9.984,0,0,1-2.577-.306,3.884,3.884,0,0,0-2,.332,3.071,3.071,0,0,1-.517.272,3.73,3.73,0,0,1,.844-.639c1.392-.86,2.3-2.662,3.99-2.785-.188-.015-.379-.023-.571-.022ZM13.55,7.767a5.258,5.258,0,0,0-.614,2.149,5.3,5.3,0,0,0,.794,2.766c.5.888,1.19,1.707,1.651,2.5A8.765,8.765,0,0,1,15.358,14c.266-1.761,1.252-3.517,1.18-5.278a9.985,9.985,0,0,1-1.269,2.264,3.884,3.884,0,0,0-.459,1.974,3.07,3.07,0,0,1,.053.581,3.729,3.729,0,0,1-.267-1.024c-.261-1.615-1.581-3.14-1.046-4.752Zm5.584.173a5.546,5.546,0,0,0-.632,4.251c.281,1.346,1.382,2.328,1.987,3.529-.161-1.507.723-2.644,1.236-3.9a8.789,8.789,0,0,0,.517-2.535c-.441,1.325-1.77,2.272-2.03,3.678a6.185,6.185,0,0,0-.058,1.38h-.022a3.956,3.956,0,0,1-.187-.991c-.169-1.836-1.571-3.451-.812-5.41Zm23,.375c-1.493,0-2.536.859-3.938.966,1.463.221,2.5,1.449,3.79,2.085a5.136,5.136,0,0,0,1.621.471,1.766,1.766,0,0,1-.64-.431c-.783-.826-1.556-1.8-2.665-1.988a3.93,3.93,0,0,1-.475-.087c-.016-.036.025-.036.035-.051l1.376.1c1.341.1,2.833-.608,4.016.17,0-.026-.016-.041-.026-.062a4.893,4.893,0,0,0-3.095-1.177ZM6.5,8.44A5.179,5.179,0,0,0,4.642,11.22,17.626,17.626,0,0,0,4.7,13.333a13.349,13.349,0,0,0,.979-2.094A14.171,14.171,0,0,1,6.5,8.44Zm26.9.147a5.546,5.546,0,0,0-3.453,2.559c-.753,1.15-.669,2.623-1.091,3.9.952-1.18,2.381-1.359,3.633-1.885a8.79,8.79,0,0,0,2.158-1.427c-1.249.625-2.858.355-4.036,1.166a6.185,6.185,0,0,0-1.017.935l-.015-.015a3.957,3.957,0,0,1,.569-.833c1.179-1.418,1.33-3.551,3.251-4.4ZM8.045,9.449a5.418,5.418,0,0,0-.318,1.116,6.352,6.352,0,0,0,.265,2.911C8.325,14.6,9.425,15.4,9.982,16.432l.076.061a4.032,4.032,0,0,1,.035-1.693c.24-.853.543-1.682.7-2.567a7.552,7.552,0,0,0,.184-2.124,3.389,3.389,0,0,1-.383,1.018c-.749,1.159-1.517,2.518-.993,3.989-.012.016-.029.036-.049.026a10.78,10.78,0,0,1-.394-1.56C8.8,12.2,7.734,11.047,8.045,9.449Zm35.867.212c-.384,0-.77.031-1.143.065a5.023,5.023,0,0,1-1.06-.026,3.874,3.874,0,0,1,1.351,1.13c.8,1.063,1.841,2.228,3.207,2.244-.983-.352-1.39-1.423-2.062-2.135a3.342,3.342,0,0,0-1.227-.834L43,10.078c.393.089.75.255,1.13.369,1.04.31,2.285.255,2.981,1.268a2.794,2.794,0,0,0-.9-1.35,3.292,3.292,0,0,0-2.294-.7Zm-20.058.57a4.663,4.663,0,0,0-.989,3.226c.123,1.663,1.293,2.965,2.2,4.2.131.178.215.425.358.581a4.569,4.569,0,0,1,.061-2.481,23.956,23.956,0,0,0,1.17-3.432c-.664,1.11-1.974,1.89-1.925,3.4a4.08,4.08,0,0,1,.06.789,2.043,2.043,0,0,1-.2-.741c-.338-1.826-1.648-3.686-.737-5.536Zm5.963.536a4.663,4.663,0,0,0-2.148,2.6c-.523,1.584.06,3.234.429,4.722.053.214.036.475.109.674A4.569,4.569,0,0,1,29.213,16.5a23.959,23.959,0,0,0,2.395-2.723c-1.038.771-2.547.991-3.078,2.4a4.08,4.08,0,0,1-.246.752,2.042,2.042,0,0,1,.1-.762c.387-1.817-.111-4.036,1.438-5.4Zm-25.329.014a2.8,2.8,0,0,0-.9,1.352c-.409,1.151.169,2.359.726,3.42a5.022,5.022,0,0,1,.381.989,3.874,3.874,0,0,1,.527-1.68c.675-1.149,1.353-2.554.846-3.822.051,1.043-.783,1.828-1.184,2.722a3.342,3.342,0,0,0-.3,1.453l-.032-.009c-.069-.4-.051-.79-.092-1.185-.112-1.08-.639-2.209.03-3.239Zm40.183.156a13.347,13.347,0,0,0,1.56,1.706,14.172,14.172,0,0,1,2.271,1.83,5.179,5.179,0,0,0-1.856-2.785,17.625,17.625,0,0,0-1.975-.751Zm-31.77.77a5.546,5.546,0,0,0,1.043,4.169c.774,1.136,2.167,1.622,3.186,2.5-.726-1.331-.344-2.72-.351-4.078a8.79,8.79,0,0,0-.493-2.54c.1,1.393-.766,2.777-.468,4.175a6.187,6.187,0,0,0,.474,1.3l-.02.008a3.956,3.956,0,0,1-.552-.844c-.859-1.632-2.772-2.587-2.821-4.688Zm5.239.31a4.663,4.663,0,0,0,.321,3.359c.75,1.489,2.329,2.244,3.643,3.035.189.114.361.31.554.4a4.569,4.569,0,0,1-.893-2.316,23.957,23.957,0,0,0-.232-3.619c-.189,1.28-1.1,2.5-.479,3.874a4.081,4.081,0,0,1,.357.706,2.043,2.043,0,0,1-.471-.607c-1.011-1.558-2.933-2.775-2.8-4.833Zm20.328.789a6.115,6.115,0,0,0-3.37,1.138c-1.136.774-1.622,2.167-2.5,3.186,1.331-.726,2.72-.344,4.078-.351a8.789,8.789,0,0,0,2.54-.493c-1.393.1-2.777-.766-4.175-.467a6.186,6.186,0,0,0-1.3.474l-.008-.02a3.956,3.956,0,0,1,.844-.552c1.632-.859,2.587-2.772,4.688-2.821a3.686,3.686,0,0,0-.8-.095Zm2.405.127a5.451,5.451,0,0,0-2.581.8c-.888.5-1.707,1.19-2.5,1.651a8.763,8.763,0,0,1,1.178-.022c1.761.266,3.517,1.252,5.278,1.18a9.984,9.984,0,0,1-2.264-1.269,3.884,3.884,0,0,0-1.974-.459,3.07,3.07,0,0,1-.581.053,3.73,3.73,0,0,1,1.025-.267c1.615-.261,3.14-1.581,4.752-1.046a5.258,5.258,0,0,0-2.149-.614q-.093,0-.185,0Zm-13.5.228a4.1,4.1,0,0,0-1.238,1.8,4.273,4.273,0,0,0,.562,3.759c.488.764,1.18,1.418,1.18,2.327A5.007,5.007,0,0,1,26.3,24.067a6.917,6.917,0,0,0-.137-4.169,10.263,10.263,0,0,0-2.57-3.117,3.932,3.932,0,0,1-1.076-3.4,4.1,4.1,0,0,0-.453,2.141,4.273,4.273,0,0,0,1.958,3.258c.743.519,1.633.859,1.981,1.7a5.006,5.006,0,0,1-.307,3.391,6.917,6.917,0,0,0-1.722-3.8,10.262,10.262,0,0,0-3.567-1.9,3.932,3.932,0,0,1-2.3-2.732,4.1,4.1,0,0,0,.4,2.151,4.273,4.273,0,0,0,3.055,2.261,4.62,4.62,0,0,1,2.48.811,5.007,5.007,0,0,1,1.014,3.25,6.917,6.917,0,0,0-3.045-2.851,10.262,10.262,0,0,0-4.021-.387,3.932,3.932,0,0,1-3.167-1.645,4.1,4.1,0,0,0,1.193,1.834,4.273,4.273,0,0,0,3.688.92,4.62,4.62,0,0,1,2.6-.2,5.006,5.006,0,0,1,2.18,2.615,6.917,6.917,0,0,0-3.9-1.469,10.262,10.262,0,0,0-3.863,1.182,3.932,3.932,0,0,1-3.556-.308,4.1,4.1,0,0,0,1.8,1.238,4.273,4.273,0,0,0,3.759-.562c.764-.488,1.418-1.18,2.327-1.18a5.006,5.006,0,0,1,3.015,1.581,6.917,6.917,0,0,0-4.169.137,10.262,10.262,0,0,0-3.117,2.57,3.932,3.932,0,0,1-3.4,1.076,4.1,4.1,0,0,0,2.141.453,4.273,4.273,0,0,0,3.258-1.957c.519-.743.859-1.633,1.7-1.981a5.007,5.007,0,0,1,3.391.307,6.917,6.917,0,0,0-3.8,1.722,10.262,10.262,0,0,0-1.9,3.567,3.932,3.932,0,0,1-2.732,2.3,4.1,4.1,0,0,0,2.151-.4,4.273,4.273,0,0,0,2.261-3.055,4.621,4.621,0,0,1,.811-2.48,5.007,5.007,0,0,1,3.25-1.014,6.917,6.917,0,0,0-2.851,3.045,10.262,10.262,0,0,0-.387,4.021,3.932,3.932,0,0,1-1.645,3.167,4.1,4.1,0,0,0,1.834-1.193,4.273,4.273,0,0,0,.92-3.688,4.62,4.62,0,0,1-.2-2.6,5.006,5.006,0,0,1,2.615-2.18,6.917,6.917,0,0,0-1.469,3.9,10.262,10.262,0,0,0,1.182,3.863,3.932,3.932,0,0,1-.308,3.556,4.1,4.1,0,0,0,1.238-1.8,4.273,4.273,0,0,0-.562-3.759c-.488-.764-1.18-1.418-1.18-2.327a5.006,5.006,0,0,1,1.581-3.015,6.917,6.917,0,0,0,.137,4.169,10.262,10.262,0,0,0,2.57,3.117,3.932,3.932,0,0,1,1.076,3.4,4.1,4.1,0,0,0,.453-2.141A4.273,4.273,0,0,0,26.959,32.2c-.743-.519-1.633-.859-1.981-1.7a5.007,5.007,0,0,1,.307-3.391,6.917,6.917,0,0,0,1.722,3.8,10.262,10.262,0,0,0,3.567,1.9,3.932,3.932,0,0,1,2.3,2.732,4.1,4.1,0,0,0-.4-2.151,4.273,4.273,0,0,0-3.055-2.261,4.621,4.621,0,0,1-2.48-.811,5.006,5.006,0,0,1-1.014-3.25,6.917,6.917,0,0,0,3.045,2.851,10.262,10.262,0,0,0,4.021.387,3.932,3.932,0,0,1,3.167,1.645,4.1,4.1,0,0,0-1.193-1.834,4.273,4.273,0,0,0-3.688-.92,4.62,4.62,0,0,1-2.6.2,5.006,5.006,0,0,1-2.18-2.615,6.917,6.917,0,0,0,3.9,1.469,10.262,10.262,0,0,0,3.863-1.182,3.932,3.932,0,0,1,3.556.308,4.1,4.1,0,0,0-1.8-1.238,4.273,4.273,0,0,0-3.759.562c-.764.488-1.418,1.18-2.327,1.18A5.006,5.006,0,0,1,26.909,26.3a6.917,6.917,0,0,0,4.169-.137,10.262,10.262,0,0,0,3.117-2.57,3.932,3.932,0,0,1,3.4-1.076,4.1,4.1,0,0,0-2.141-.453A4.273,4.273,0,0,0,32.2,24.017c-.519.743-.859,1.633-1.7,1.981a5.006,5.006,0,0,1-3.391-.307,6.917,6.917,0,0,0,3.8-1.722,10.262,10.262,0,0,0,1.9-3.567,3.932,3.932,0,0,1,2.732-2.3,4.1,4.1,0,0,0-2.151.4,4.273,4.273,0,0,0-2.261,3.055,4.62,4.62,0,0,1-.811,2.48,5.007,5.007,0,0,1-3.25,1.014,6.917,6.917,0,0,0,2.851-3.045,10.262,10.262,0,0,0,.387-4.021,3.932,3.932,0,0,1,1.645-3.167,4.1,4.1,0,0,0-1.834,1.193,4.273,4.273,0,0,0-.92,3.688,4.62,4.62,0,0,1,.2,2.6,5.006,5.006,0,0,1-2.615,2.18,6.917,6.917,0,0,0,1.469-3.9,10.262,10.262,0,0,0-1.182-3.863,3.932,3.932,0,0,1,.308-3.556ZM3.2,13.328c-.026.006-.032.03-.047.048a4.893,4.893,0,0,0,.1,3.31c.571,1.379,1.764,2.014,2.4,3.268-.356-1.436.381-2.867.476-4.3a5.136,5.136,0,0,0-.185-1.678,1.765,1.765,0,0,1-.153.756c-.464,1.04-1.068,2.126-.816,3.223a3.931,3.931,0,0,1,.1.472c-.027.028-.043-.01-.061-.013L4.584,17.1c-.421-1.277-1.645-2.385-1.38-3.775Zm7.6.1A9.985,9.985,0,0,1,10.5,16a3.884,3.884,0,0,0,.332,2,3.07,3.07,0,0,1,.272.517,3.73,3.73,0,0,1-.639-.844c-.86-1.392-2.662-2.3-2.785-3.99a5.258,5.258,0,0,0,.255,2.221,5.3,5.3,0,0,0,1.792,2.252c.8.63,1.753,1.121,2.481,1.675a8.763,8.763,0,0,1-.471-1.08c-.428-1.729-.189-3.728-.93-5.328Zm24.317.12a4.663,4.663,0,0,0-2.981,1.582c-1.089,1.263-1.182,3.011-1.41,4.527-.033.218-.148.453-.157.664a4.569,4.569,0,0,1,1.8-1.711,23.959,23.959,0,0,0,3.254-1.6c-1.254.315-2.732-.059-3.762,1.04a4.082,4.082,0,0,1-.515.6,2.042,2.042,0,0,1,.38-.667c1.053-1.53,1.442-3.772,3.394-4.436Zm7.832.362c-1.055.019-2.11.611-3.165.721l-.085.047a4.032,4.032,0,0,1,1.551.681c.7.549,1.347,1.145,2.1,1.63a7.552,7.552,0,0,0,1.892.983,3.389,3.389,0,0,1-.794-.744c-.785-1.135-1.746-2.365-3.305-2.444-.01-.017-.022-.041-.005-.055a10.782,10.782,0,0,1,1.592.233c1.416.194,2.888-.347,4.245.552a5.418,5.418,0,0,0-.909-.721,6.352,6.352,0,0,0-2.791-.869,2.671,2.671,0,0,0-.328-.014ZM17.008,15.351c.315,1.254-.059,2.732,1.04,3.762a4.08,4.08,0,0,1,.6.515,2.042,2.042,0,0,1-.667-.38c-1.53-1.053-3.772-1.442-4.436-3.394a4.663,4.663,0,0,0,1.582,2.981c1.263,1.089,3.011,1.182,4.527,1.41.218.033.453.148.664.157a4.569,4.569,0,0,1-1.711-1.8,23.956,23.956,0,0,0-1.6-3.254Zm26.418.025c1.267.764,1.757,2.3,2.7,3.377a5.136,5.136,0,0,0,1.318,1.056,1.765,1.765,0,0,1-.426-.643c-.407-1.063-.748-2.259-1.7-2.856a3.932,3.932,0,0,1-.406-.262c0-.039.037-.024.052-.034l1.232.621c1.2.605,2.85.523,3.645,1.693.014-.023,0-.044,0-.067a4.893,4.893,0,0,0-2.409-2.271h0c-1.379-.571-2.671-.177-4.008-.614Zm-31.692.948c.625,1.249.355,2.858,1.166,4.036a6.185,6.185,0,0,0,.935,1.017l-.015.015a3.956,3.956,0,0,1-.833-.569c-1.418-1.179-3.551-1.33-4.4-3.251a5.546,5.546,0,0,0,2.559,3.452c1.15.753,2.623.669,3.9,1.091-1.18-.952-1.359-2.381-1.885-3.633a8.789,8.789,0,0,0-1.427-2.158ZM6.2,16.832a3.389,3.389,0,0,1,.035,1.087c-.248,1.358-.438,2.907.609,4.066-.005.019-.013.045-.035.042a10.78,10.78,0,0,1-.961-1.29c-.864-1.138-2.287-1.8-2.611-3.392A5.418,5.418,0,0,0,3.369,18.5a6.352,6.352,0,0,0,1.359,2.588c.737.911,2.06,1.232,2.969,1.97l.094.027A4.032,4.032,0,0,1,7.175,21.5c-.1-.88-.142-1.762-.334-2.64A7.552,7.552,0,0,0,6.2,16.832ZM1.426,17a5.178,5.178,0,0,0-.657,3.282,17.627,17.627,0,0,0,.866,1.928,13.348,13.348,0,0,0,.1-2.309A14.172,14.172,0,0,1,1.426,17Zm45.091.107a3.875,3.875,0,0,1,.816,1.561c.335,1.29.849,2.763,2.1,3.3-.773-.7-.739-1.847-1.087-2.762a3.341,3.341,0,0,0-.814-1.24l.029-.016c.329.232.595.523.9.773.843.685,2.013,1.11,2.269,2.312a2.8,2.8,0,0,0-.319-1.594c-.525-1.1-1.788-1.549-2.932-1.9a5.024,5.024,0,0,1-.969-.43Zm-8.843.851a4.892,4.892,0,0,0-2.075.5c-1.489.75-2.244,2.329-3.035,3.643-.114.189-.31.361-.4.554a4.569,4.569,0,0,1,2.316-.893,23.958,23.958,0,0,0,3.619-.232c-1.28-.189-2.5-1.1-3.874-.479a4.08,4.08,0,0,1-.706.357,2.042,2.042,0,0,1,.607-.471c1.558-1.011,2.775-2.933,4.833-2.8a3.972,3.972,0,0,0-1.285-.18Zm2.49.389a7.239,7.239,0,0,0-1.379.152c-1.346.281-2.328,1.382-3.529,1.987,1.507-.161,2.644.723,3.9,1.237a8.79,8.79,0,0,0,2.535.517c-1.325-.441-2.272-1.77-3.678-2.03a6.187,6.187,0,0,0-1.38-.058v-.022a3.957,3.957,0,0,1,.991-.187c1.836-.169,3.451-1.571,5.41-.812a4.821,4.821,0,0,0-2.872-.784ZM13.774,19.368c.771,1.038.991,2.547,2.4,3.078a4.08,4.08,0,0,1,.752.246,2.042,2.042,0,0,1-.762-.1c-1.817-.387-4.036.111-5.4-1.438a4.663,4.663,0,0,0,2.6,2.148c1.584.523,3.234-.06,4.722-.429.214-.053.475-.036.674-.109A4.569,4.569,0,0,1,16.5,21.763a23.958,23.958,0,0,0-2.723-2.395Zm35,.019a13.348,13.348,0,0,0,.789,2.173,14.172,14.172,0,0,1,1.4,2.56,5.178,5.178,0,0,0-.649-3.283,17.626,17.626,0,0,0-1.538-1.45Zm-6.047.079a7.894,7.894,0,0,0-.914.059c-1.01.12-2.033.447-2.939.57a8.767,8.767,0,0,1,1.1.43c1.526.92,2.77,2.5,4.425,3.109A9.984,9.984,0,0,1,42.794,21.6a3.884,3.884,0,0,0-1.648-1.179,3.07,3.07,0,0,1-.558-.173,3.73,3.73,0,0,1,1.049.145c1.592.376,3.506-.259,4.79.852a5.258,5.258,0,0,0-1.751-1.39,4.624,4.624,0,0,0-1.945-.384Zm-40.716.107c.446.944-.024,1.989-.052,2.968A3.342,3.342,0,0,0,2.241,24l-.033,0c-.215-.341-.35-.71-.538-1.06-.516-.955-1.435-1.8-1.212-3a2.794,2.794,0,0,0-.315,1.594c.063,1.219,1.059,2.115,1.98,2.882a5.023,5.023,0,0,1,.731.768A3.874,3.874,0,0,1,2.7,23.427c.184-1.32.273-2.877-.681-3.855Zm5.29.39a9.985,9.985,0,0,1,.7,2.5,3.884,3.884,0,0,0,1.071,1.72,3.07,3.07,0,0,1,.449.374,3.73,3.73,0,0,1-.914-.535c-1.327-.957-3.338-1.1-4.1-2.62A5.258,5.258,0,0,0,5.6,23.353a5.3,5.3,0,0,0,2.518,1.395c.979.276,2.049.365,2.933.6a8.763,8.763,0,0,1-.848-.817c-1.057-1.434-1.6-3.372-2.9-4.566Zm35.55.964-.1.011a4.031,4.031,0,0,1,1.172,1.222c.434.773.806,1.573,1.319,2.311A7.552,7.552,0,0,0,46.622,26.1a3.39,3.39,0,0,1-.449-.991c-.29-1.349-.708-2.854-2.119-3.523,0-.02,0-.046.016-.053a10.781,10.781,0,0,1,1.382.824c1.234.721,2.8.785,3.71,2.135a5.418,5.418,0,0,0-.564-1.014,6.352,6.352,0,0,0-2.246-1.871c-1.029-.559-2.375-.35-3.5-.684ZM9.274,22.286c1.055.914,1.422,2.5,2.622,3.283a6.185,6.185,0,0,0,1.253.582l-.008.02a3.956,3.956,0,0,1-.987-.207c-1.761-.547-3.789.13-5.309-1.32a5.546,5.546,0,0,0,3.686,2.21c1.351.256,2.68-.385,4.021-.485-1.454-.428-2.166-1.68-3.132-2.636a8.79,8.79,0,0,0-2.145-1.448Zm-6.248.046a1.765,1.765,0,0,1,.148.757c-.03,1.138-.173,2.373.479,3.29a3.933,3.933,0,0,1,.275.4c-.014.037-.044.007-.061.011l-.9-1.046C2.089,24.722.533,24.167.247,22.781c-.022.015-.018.04-.025.062a4.893,4.893,0,0,0,1.357,3.02c1.056,1.056,2.4,1.186,3.468,2.1-.878-1.191-.745-2.794-1.206-4.154a5.136,5.136,0,0,0-.813-1.48Zm34.9.524c-.14,0-.277,0-.411.011-1.663.123-2.965,1.293-4.2,2.2-.178.131-.425.215-.581.358a4.569,4.569,0,0,1,2.481.061,23.958,23.958,0,0,0,3.432,1.17c-1.11-.664-1.89-1.974-3.4-1.925a4.08,4.08,0,0,1-.789.06,2.042,2.042,0,0,1,.741-.2c1.826-.338,3.686-1.648,5.537-.737A4.609,4.609,0,0,0,37.929,22.855Zm8,.156c.878,1.191.745,2.794,1.206,4.154a5.136,5.136,0,0,0,.813,1.48,1.766,1.766,0,0,1-.148-.757c.03-1.138.173-2.373-.479-3.29a3.935,3.935,0,0,1-.275-.4c.014-.037.044-.008.061-.011l.9,1.046c.878,1.019,2.433,1.574,2.719,2.959.022-.015.018-.04.025-.062A4.893,4.893,0,0,0,49.4,25.112c-1.056-1.056-2.4-1.186-3.468-2.1Zm-6.116,1.052c-1.135-.009-2.258.461-3.389.545,1.454.428,2.166,1.68,3.132,2.636A8.789,8.789,0,0,0,41.7,28.69c-1.055-.914-1.422-2.5-2.621-3.283a6.186,6.186,0,0,0-1.253-.582l.008-.02a3.957,3.957,0,0,1,.987.207c1.761.547,3.789-.131,5.309,1.32a5.546,5.546,0,0,0-3.686-2.21A3.535,3.535,0,0,0,39.814,24.062Zm-27.49.254c1.11.664,1.89,1.974,3.4,1.925a4.08,4.08,0,0,1,.789-.06,2.042,2.042,0,0,1-.741.2c-1.826.338-3.686,1.648-5.537.737a4.663,4.663,0,0,0,3.226.989c1.663-.123,2.965-1.293,4.2-2.2.178-.131.425-.215.581-.359a4.569,4.569,0,0,1-2.481-.061,23.956,23.956,0,0,0-3.432-1.17Zm-7.97.557a3.389,3.389,0,0,1,.449.991c.29,1.349.708,2.854,2.119,3.523,0,.02.005.046-.016.053a10.781,10.781,0,0,1-1.382-.824c-1.234-.721-2.8-.785-3.71-2.135a5.418,5.418,0,0,0,.564,1.014,6.352,6.352,0,0,0,2.246,1.871c1.029.559,2.375.35,3.5.684l.1-.011a4.032,4.032,0,0,1-1.172-1.222c-.434-.773-.806-1.573-1.319-2.311a7.552,7.552,0,0,0-1.371-1.632Zm35.57.756a8.764,8.764,0,0,1,.848.817c1.057,1.434,1.6,3.372,2.9,4.566a9.984,9.984,0,0,1-.7-2.5,3.884,3.884,0,0,0-1.071-1.72,3.07,3.07,0,0,1-.449-.374,3.73,3.73,0,0,1,.914.535c1.327.957,3.338,1.1,4.1,2.62a4.646,4.646,0,0,0-3.6-3.349c-.979-.276-2.049-.365-2.933-.6Zm8.2.165a3.875,3.875,0,0,1,.157,1.754c-.184,1.32-.273,2.877.681,3.855-.446-.944.024-1.989.052-2.968a3.342,3.342,0,0,0-.278-1.457l.033,0c.215.341.35.71.538,1.06.517.955,1.435,1.8,1.212,3a2.8,2.8,0,0,0,.315-1.594c-.063-1.219-1.059-2.115-1.98-2.882a5.024,5.024,0,0,1-.731-.768ZM.01,26.856a5.178,5.178,0,0,0,.649,3.283A17.627,17.627,0,0,0,2.2,31.589a13.348,13.348,0,0,0-.789-2.173A14.17,14.17,0,0,1,.01,26.856Zm6.565.486A9.984,9.984,0,0,1,8.182,29.38,3.884,3.884,0,0,0,9.83,30.559a3.07,3.07,0,0,1,.558.174,3.73,3.73,0,0,1-1.049-.145c-1.592-.376-3.506.259-4.79-.852A5.258,5.258,0,0,0,6.3,31.126a5.3,5.3,0,0,0,2.86.325c1.01-.12,2.033-.447,2.939-.57a8.764,8.764,0,0,1-1.1-.43c-1.526-.92-2.77-2.5-4.425-3.11Zm29.684.119a14.113,14.113,0,0,0-3.375.637c-.214.053-.475.036-.674.109a4.569,4.569,0,0,1,2.269,1.006A23.956,23.956,0,0,0,37.2,31.608c-.771-1.038-.991-2.547-2.4-3.078a4.081,4.081,0,0,1-.752-.246,2.042,2.042,0,0,1,.762.1c1.817.387,4.036-.111,5.4,1.438a4.663,4.663,0,0,0-2.6-2.148,4.306,4.306,0,0,0-1.347-.208Zm6.926.433a4.031,4.031,0,0,1,.615,1.578c.1.88.142,1.762.334,2.64a7.552,7.552,0,0,0,.643,2.032,3.389,3.389,0,0,1-.035-1.087c.248-1.358.438-2.907-.609-4.066.005-.019.013-.045.035-.042a10.78,10.78,0,0,1,.961,1.29c.864,1.138,2.287,1.8,2.611,3.392a5.418,5.418,0,0,0-.133-1.152,6.352,6.352,0,0,0-1.359-2.588c-.737-.91-2.06-1.232-2.969-1.97l-.094-.027Zm-24.373.425a4.569,4.569,0,0,1-2.316.893,23.956,23.956,0,0,0-3.619.232c1.28.189,2.5,1.1,3.874.479a4.08,4.08,0,0,1,.706-.357,2.042,2.042,0,0,1-.607.471c-1.558,1.011-2.775,2.933-4.833,2.8a4.663,4.663,0,0,0,3.359-.321c1.489-.75,2.244-2.329,3.035-3.643.114-.189.31-.361.4-.553Zm-9.529.416c1.325.441,2.272,1.77,3.678,2.029a6.187,6.187,0,0,0,1.38.058v.022a3.957,3.957,0,0,1-.991.187c-1.836.169-3.451,1.571-5.41.812a5.546,5.546,0,0,0,4.251.632c1.346-.281,2.328-1.382,3.529-1.987-1.507.161-2.644-.723-3.9-1.236a8.789,8.789,0,0,0-2.535-.517Zm40.058.03a13.35,13.35,0,0,0-.1,2.309,14.171,14.171,0,0,1,.312,2.9,5.179,5.179,0,0,0,.657-3.282A17.627,17.627,0,0,0,49.341,28.764Zm-13.411.1c1.18.952,1.359,2.381,1.885,3.633a8.789,8.789,0,0,0,1.427,2.158c-.625-1.249-.355-2.858-1.166-4.036a6.186,6.186,0,0,0-.935-1.017l.015-.015a3.956,3.956,0,0,1,.833.569c1.418,1.179,3.551,1.33,4.4,3.251A5.546,5.546,0,0,0,39.83,29.95c-1.15-.753-2.623-.669-3.9-1.091Zm-34.391.146c.773.7.739,1.847,1.087,2.762a3.342,3.342,0,0,0,.814,1.24l-.029.016c-.329-.232-.595-.523-.9-.773C1.667,31.566.5,31.14.24,29.938a2.794,2.794,0,0,0,.319,1.594c.525,1.1,1.788,1.549,2.932,1.9a5.023,5.023,0,0,1,.969.43,3.874,3.874,0,0,1-.816-1.561c-.335-1.29-.849-2.763-2.1-3.3Zm29.119,1.567a4.569,4.569,0,0,1,1.711,1.8,23.957,23.957,0,0,0,1.6,3.254c-.315-1.254.059-2.732-1.04-3.762a4.08,4.08,0,0,1-.6-.515,2.042,2.042,0,0,1,.667.38c1.53,1.053,3.772,1.442,4.436,3.394a4.663,4.663,0,0,0-1.582-2.981c-1.263-1.089-3.011-1.182-4.527-1.41-.218-.033-.453-.148-.664-.157ZM20.4,30.658a4.569,4.569,0,0,1-1.8,1.711,23.957,23.957,0,0,0-3.254,1.6c1.254-.315,2.732.059,3.762-1.04a4.079,4.079,0,0,1,.515-.6,2.042,2.042,0,0,1-.38.667c-1.053,1.53-1.442,3.772-3.394,4.436a4.663,4.663,0,0,0,2.981-1.582c1.089-1.263,1.182-3.011,1.41-4.527.033-.218.148-.453.157-.664Zm24.919.365c.356,1.436-.381,2.867-.476,4.3A5.135,5.135,0,0,0,45.031,37a1.765,1.765,0,0,1,.153-.756c.464-1.04,1.068-2.126.816-3.223a3.932,3.932,0,0,1-.1-.472c.027-.028.043.01.061.013l.432,1.311c.421,1.277,1.645,2.385,1.38,3.775.026-.006.032-.03.047-.047a4.893,4.893,0,0,0-.1-3.31c-.571-1.379-1.764-2.014-2.4-3.268Zm-6.552.121a8.765,8.765,0,0,1,.471,1.08c.428,1.729.189,3.728.93,5.328a9.984,9.984,0,0,1,.306-2.577,3.884,3.884,0,0,0-.332-2,3.069,3.069,0,0,1-.272-.517,3.73,3.73,0,0,1,.639.844c.86,1.392,2.662,2.3,2.785,3.99a4.645,4.645,0,0,0-2.047-4.473C40.453,32.188,39.5,31.7,38.771,31.143Zm-35.242.024a1.765,1.765,0,0,1,.426.643c.407,1.063.748,2.259,1.7,2.856a3.932,3.932,0,0,1,.406.262c0,.039-.037.024-.052.034L4.777,34.34c-1.2-.605-2.85-.523-3.645-1.693-.015.023,0,.044,0,.067a4.893,4.893,0,0,0,2.409,2.272h0c1.379.571,2.671.177,4.008.614-1.267-.764-1.757-2.3-2.7-3.377a5.136,5.136,0,0,0-1.318-1.056Zm24.79,1a4.569,4.569,0,0,1,.893,2.316,23.957,23.957,0,0,0,.232,3.619c.189-1.28,1.1-2.5.479-3.874a4.079,4.079,0,0,1-.357-.706,2.042,2.042,0,0,1,.471.607c1.011,1.558,2.933,2.775,2.8,4.833a4.663,4.663,0,0,0-.321-3.359c-.75-1.489-2.329-2.244-3.643-3.035-.189-.114-.361-.31-.553-.4Zm-5.549.046a4.569,4.569,0,0,1-1.006,2.269A23.957,23.957,0,0,0,19.368,37.2c1.038-.771,2.547-.991,3.078-2.4a4.08,4.08,0,0,1,.246-.752,2.042,2.042,0,0,1-.1.762c-.387,1.817.112,4.036-1.438,5.4a4.663,4.663,0,0,0,2.148-2.6c.523-1.584-.06-3.234-.429-4.722-.053-.214-.036-.475-.109-.674Zm11.076.389c.726,1.331.344,2.719.351,4.078a8.79,8.79,0,0,0,.493,2.54c-.1-1.393.766-2.777.468-4.175a6.186,6.186,0,0,0-.474-1.3l.02-.008a3.956,3.956,0,0,1,.552.844c.859,1.632,2.772,2.587,2.821,4.688A5.546,5.546,0,0,0,37.031,35.1c-.774-1.136-2.167-1.622-3.186-2.5Zm-8.3.14a4.569,4.569,0,0,1-.061,2.481,23.958,23.958,0,0,0-1.17,3.432c.664-1.11,1.974-1.89,1.925-3.4a4.081,4.081,0,0,1-.06-.789,2.042,2.042,0,0,1,.2.741c.338,1.826,1.648,3.686.737,5.537a4.663,4.663,0,0,0,.989-3.226c-.123-1.663-1.293-2.965-2.2-4.2-.131-.178-.215-.425-.358-.581Zm-19.821.269a3.389,3.389,0,0,1,.794.744c.785,1.135,1.746,2.366,3.306,2.444.01.017.022.041.005.055a10.781,10.781,0,0,1-1.592-.233c-1.416-.194-2.888.347-4.245-.552a5.417,5.417,0,0,0,.909.721,6.352,6.352,0,0,0,2.791.869c1.165.123,2.328-.585,3.492-.707l.086-.047a4.032,4.032,0,0,1-1.551-.681c-.7-.549-1.347-1.145-2.1-1.63a7.552,7.552,0,0,0-1.891-.983Zm12.649.837c-1.331.726-2.72.344-4.078.351a8.789,8.789,0,0,0-2.54.493c1.393-.1,2.777.766,4.175.468a6.186,6.186,0,0,0,1.3-.474l.008.02a3.956,3.956,0,0,1-.844.552c-1.632.859-2.587,2.772-4.688,2.821a5.546,5.546,0,0,0,4.169-1.043C17.013,36.257,17.5,34.863,18.377,33.845Zm27.9.588a3.874,3.874,0,0,1-.527,1.681c-.675,1.149-1.353,2.554-.846,3.822-.051-1.043.783-1.828,1.184-2.722a3.342,3.342,0,0,0,.3-1.453l.032.009c.069.4.051.79.092,1.185.112,1.08.639,2.208-.03,3.239a2.794,2.794,0,0,0,.9-1.352c.409-1.15-.169-2.359-.726-3.42a5.023,5.023,0,0,1-.381-.989Zm-37.392,0q-.083,0-.165,0a9.984,9.984,0,0,1,2.264,1.269,3.884,3.884,0,0,0,1.974.459,3.071,3.071,0,0,1,.581-.053,3.73,3.73,0,0,1-1.025.267c-1.615.261-3.14,1.581-4.752,1.046a5.258,5.258,0,0,0,2.149.614,5.3,5.3,0,0,0,2.766-.794c.888-.5,1.707-1.191,2.5-1.651A8.764,8.764,0,0,1,14,35.618C12.3,35.36,10.6,34.427,8.89,34.434Zm32.028.048a4.031,4.031,0,0,1-.035,1.693c-.24.853-.543,1.682-.7,2.567A7.553,7.553,0,0,0,40,40.866a3.389,3.389,0,0,1,.383-1.018c.749-1.159,1.517-2.518.993-3.989.012-.016.029-.036.049-.026a10.783,10.783,0,0,1,.394,1.56c.363,1.382,1.425,2.536,1.114,4.133a5.418,5.418,0,0,0,.318-1.116,6.352,6.352,0,0,0-.265-2.911c-.332-1.123-1.432-1.927-1.989-2.956l-.076-.061Zm-10.43.773c.161,1.507-.723,2.644-1.236,3.9a8.79,8.79,0,0,0-.517,2.535c.441-1.325,1.77-2.272,2.03-3.678a6.185,6.185,0,0,0,.058-1.38h.022a3.956,3.956,0,0,1,.187.991c.169,1.836,1.571,3.451.812,5.41a5.546,5.546,0,0,0,.632-4.251c-.281-1.346-1.382-2.328-1.987-3.529Zm5.108.54a8.763,8.763,0,0,1,.022,1.178c-.266,1.761-1.252,3.517-1.179,5.278a9.984,9.984,0,0,1,1.269-2.264,3.884,3.884,0,0,0,.459-1.974,3.07,3.07,0,0,1-.053-.581,3.73,3.73,0,0,1,.267,1.025c.261,1.615,1.581,3.14,1.046,4.752a4.646,4.646,0,0,0-.18-4.916c-.5-.888-1.191-1.707-1.651-2.5Zm-13.479.134c-.952,1.18-2.381,1.359-3.633,1.885a8.79,8.79,0,0,0-2.158,1.427c1.249-.625,2.858-.355,4.036-1.166a6.186,6.186,0,0,0,1.017-.935l.016.015a3.956,3.956,0,0,1-.569.833c-1.179,1.418-1.33,3.551-3.251,4.4a5.546,5.546,0,0,0,3.452-2.559c.753-1.15.669-2.623,1.091-3.9Zm4.253.5c-.428,1.454-1.68,2.166-2.636,3.132A8.789,8.789,0,0,0,22.286,41.7c.914-1.055,2.5-1.422,3.283-2.621a6.185,6.185,0,0,0,.582-1.253l.02.008a3.956,3.956,0,0,1-.207.987c-.547,1.761.13,3.789-1.32,5.309a5.546,5.546,0,0,0,2.21-3.686c.256-1.351-.385-2.68-.485-4.021Zm-23.9.077a5.178,5.178,0,0,0,1.856,2.785,17.627,17.627,0,0,0,1.976.751,13.349,13.349,0,0,0-1.56-1.706A14.172,14.172,0,0,1,2.473,36.5Zm43.8,1.141a13.347,13.347,0,0,0-.979,2.094,14.17,14.17,0,0,1-.822,2.8,5.178,5.178,0,0,0,1.863-2.78,17.621,17.621,0,0,0-.062-2.112ZM4.708,37.9c.983.352,1.39,1.423,2.062,2.135A3.341,3.341,0,0,0,8,40.872l-.02.026c-.393-.089-.75-.255-1.13-.369-1.04-.31-2.285-.255-2.981-1.268a2.794,2.794,0,0,0,.9,1.35c.907.818,2.244.747,3.437.638a5.023,5.023,0,0,1,1.06.026,3.875,3.875,0,0,1-1.351-1.13c-.8-1.063-1.842-2.228-3.207-2.244Zm36.987.289c-.221,1.463-1.449,2.5-2.085,3.79a5.136,5.136,0,0,0-.471,1.621,1.765,1.765,0,0,1,.431-.64c.826-.783,1.8-1.556,1.988-2.665a3.932,3.932,0,0,1,.087-.475c.036-.016.036.026.051.036l-.1,1.376c-.1,1.341.608,2.833-.17,4.016.026,0,.041-.016.062-.026a4.893,4.893,0,0,0,1.177-3.095C42.661,40.636,41.8,39.593,41.695,38.191Zm-21.862.579a8.763,8.763,0,0,1-1.08.471c-1.729.428-3.728.189-5.328.93A9.984,9.984,0,0,1,16,40.478a3.884,3.884,0,0,0,2-.332,3.07,3.07,0,0,1,.517-.272,3.73,3.73,0,0,1-.844.639c-1.392.86-2.3,2.662-3.99,2.785a5.258,5.258,0,0,0,2.221-.255,5.3,5.3,0,0,0,2.252-1.792C18.788,40.453,19.279,39.5,19.833,38.771Zm11.049.108a8.764,8.764,0,0,1-.43,1.1c-.92,1.526-2.5,2.77-3.11,4.425a9.985,9.985,0,0,1,2.039-1.606,3.884,3.884,0,0,0,1.179-1.648,3.07,3.07,0,0,1,.174-.557,3.73,3.73,0,0,1-.145,1.049c-.376,1.592.259,3.506-.852,4.79a4.645,4.645,0,0,0,1.715-4.61c-.12-1.01-.447-2.033-.57-2.939Zm-23.508.259a1.765,1.765,0,0,1,.64.431c.783.826,1.556,1.8,2.665,1.988a3.928,3.928,0,0,1,.475.087c.016.036-.026.036-.036.051l-1.376-.1c-1.341-.1-2.833.608-4.015-.17,0,.026.016.041.026.062A4.893,4.893,0,0,0,8.847,42.66c1.493,0,2.536-.859,3.938-.966-1.463-.221-2.5-1.449-3.79-2.085a5.135,5.135,0,0,0-1.621-.471ZM36.3,39.7a4.032,4.032,0,0,1-.681,1.551c-.549.7-1.145,1.347-1.63,2.1a7.553,7.553,0,0,0-.983,1.892,3.389,3.389,0,0,1,.744-.794c1.135-.785,2.366-1.746,2.444-3.306.017-.01.041-.022.055,0a10.779,10.779,0,0,1-.233,1.592c-.194,1.416.347,2.888-.552,4.245a5.418,5.418,0,0,0,.721-.909,6.352,6.352,0,0,0,.869-2.791c.123-1.165-.585-2.328-.707-3.492L36.3,39.7Zm-10.954.221a8.763,8.763,0,0,1-.817.848c-1.434,1.057-3.372,1.6-4.566,2.9a9.985,9.985,0,0,1,2.5-.7,3.884,3.884,0,0,0,1.72-1.071,3.07,3.07,0,0,1,.374-.449,3.729,3.729,0,0,1-.535.913c-.957,1.327-1.1,3.338-2.62,4.1a5.258,5.258,0,0,0,1.954-1.085,5.3,5.3,0,0,0,1.395-2.518C25.024,41.878,25.113,40.808,25.346,39.924Zm-14.853.05a3.428,3.428,0,0,0-.384.024,3.389,3.389,0,0,1,1.018.383c1.159.749,2.518,1.517,3.989.993.016.012.036.029.026.049a10.78,10.78,0,0,1-1.56.394c-1.382.363-2.536,1.425-4.133,1.114a5.417,5.417,0,0,0,1.116.318,6.352,6.352,0,0,0,2.911-.265c1.123-.332,1.927-1.432,2.956-1.989l.061-.076a4.032,4.032,0,0,1-1.693-.035c-.853-.24-1.682-.543-2.567-.7a9.737,9.737,0,0,0-1.739-.208Zm30.782,1.736a3.875,3.875,0,0,1-1.13,1.351c-1.063.8-2.228,1.841-2.244,3.207.352-.983,1.423-1.39,2.135-2.062a3.342,3.342,0,0,0,.834-1.227L40.9,43c-.089.393-.255.75-.369,1.13-.31,1.04-.255,2.285-1.268,2.981a2.794,2.794,0,0,0,1.35-.9c.818-.907.747-2.244.638-3.437a5.024,5.024,0,0,1,.026-1.06ZM30.038,42.759a4.031,4.031,0,0,1-1.222,1.172c-.773.434-1.573.806-2.311,1.319a7.553,7.553,0,0,0-1.632,1.372,3.39,3.39,0,0,1,.991-.449c1.349-.29,2.854-.708,3.523-2.119.02,0,.046,0,.053.016a10.782,10.782,0,0,1-.824,1.382c-.721,1.234-.785,2.8-2.135,3.71a5.418,5.418,0,0,0,1.014-.564,6.352,6.352,0,0,0,1.871-2.246c.559-1.029.35-2.375.684-3.5l-.011-.1Zm-6.956.427A4.031,4.031,0,0,1,21.5,43.8c-.88.1-1.762.143-2.64.334a7.552,7.552,0,0,0-2.032.643,3.389,3.389,0,0,1,1.087-.035c1.358.248,2.907.438,4.066-.609.019.005.045.013.042.035a10.781,10.781,0,0,1-1.29.961c-1.138.864-1.8,2.287-3.392,2.611a5.418,5.418,0,0,0,1.152-.133,6.352,6.352,0,0,0,2.588-1.359c.911-.737,1.232-2.06,1.97-2.969l.027-.094Zm12.517.241c-.764,1.267-2.3,1.757-3.377,2.7a5.136,5.136,0,0,0-1.056,1.318,1.765,1.765,0,0,1,.643-.426c1.063-.407,2.259-.748,2.856-1.7a3.934,3.934,0,0,1,.262-.406c.039,0,.024.037.034.052L34.34,46.2c-.605,1.2-.523,2.85-1.693,3.645.023.015.044,0,.067,0a4.893,4.893,0,0,0,2.271-2.409c.571-1.379.177-2.671.614-4.008ZM8.44,44.471a5.179,5.179,0,0,0,2.781,1.863,17.628,17.628,0,0,0,2.112-.062,13.347,13.347,0,0,0-2.094-.979,14.173,14.173,0,0,1-2.8-.822Zm31.6.2a13.348,13.348,0,0,0-1.706,1.56A14.172,14.172,0,0,1,36.5,48.5a5.178,5.178,0,0,0,2.785-1.856,17.63,17.63,0,0,0,.751-1.975Zm-28.026.061a2.529,2.529,0,0,0-.971.177c1.043-.051,1.828.783,2.722,1.184a3.342,3.342,0,0,0,1.453.3l-.009.032c-.4.069-.79.051-1.185.092-1.08.112-2.208.639-3.239-.03a2.8,2.8,0,0,0,1.352.9c1.151.409,2.359-.169,3.42-.726a5.022,5.022,0,0,1,.989-.381,3.875,3.875,0,0,1-1.681-.527,6.091,6.091,0,0,0-2.851-1.023Zm3.432.1a5.247,5.247,0,0,0-1.468.194,1.765,1.765,0,0,1,.756.153c1.04.464,2.126,1.068,3.223.816a3.936,3.936,0,0,1,.472-.1c.028.027-.01.043-.013.061l-1.311.432c-1.277.421-2.385,1.645-3.775,1.38.006.026.03.032.047.047a4.893,4.893,0,0,0,3.31-.1c1.379-.571,2.014-1.764,3.268-2.4-1.436.356-2.867-.381-4.3-.476q-.1-.007-.211-.009ZM27.965,45.93c-1.191.878-2.794.745-4.154,1.205a5.136,5.136,0,0,0-1.48.813,1.765,1.765,0,0,1,.757-.148c1.138.03,2.373.173,3.29-.479a3.93,3.93,0,0,1,.4-.275c.037.014.008.044.011.061l-1.046.9c-1.019.878-1.574,2.433-2.959,2.719.015.022.04.018.062.025a4.893,4.893,0,0,0,3.02-1.356c1.056-1.056,1.186-2.4,2.1-3.468Zm5.9.586a3.874,3.874,0,0,1-1.561.816c-1.29.335-2.763.849-3.3,2.1.7-.773,1.847-.739,2.762-1.087a3.342,3.342,0,0,0,1.24-.815l.016.029c-.232.329-.523.595-.773.9-.685.843-1.11,2.013-2.312,2.269a2.794,2.794,0,0,0,1.594-.319c1.1-.525,1.549-1.787,1.9-2.932A5.023,5.023,0,0,1,33.867,46.516Zm-8.685,1.606a3.874,3.874,0,0,1-1.754.157c-1.32-.184-2.877-.273-3.855.681.944-.446,1.989.024,2.968.052A3.342,3.342,0,0,0,24,48.734l0,.033c-.341.215-.71.35-1.06.538-.955.516-1.8,1.435-3,1.212a2.794,2.794,0,0,0,1.594.315c1.219-.063,2.115-1.059,2.882-1.98a5.023,5.023,0,0,1,.768-.731Zm6.407.657a13.349,13.349,0,0,0-2.173.789,14.171,14.171,0,0,1-2.56,1.4,5.178,5.178,0,0,0,3.283-.649A17.623,17.623,0,0,0,31.589,48.779Zm-11.1.426a3.856,3.856,0,0,0-.584.033,14.171,14.171,0,0,1-2.9.312,5.178,5.178,0,0,0,3.282.657,17.625,17.625,0,0,0,1.928-.866c-.583-.018-1.147-.128-1.725-.136Z" transform="translate(1 3.144)" fill="#1c2898" opacity="0.1"/><path d="M23.5,0a4.373,4.373,0,0,0-2.66.659A17.626,17.626,0,0,0,19.387,2.2a13.349,13.349,0,0,0,2.173-.789A14.171,14.171,0,0,1,24.12.01C23.914.006,23.706,0,23.5,0Zm6.165.137q-.108,0-.217.006c-1.219.063-2.115,1.059-2.882,1.98a5.024,5.024,0,0,1-.768.731A3.874,3.874,0,0,1,27.548,2.7c1.32.184,2.877.273,3.855-.681-.944.446-1.989-.024-2.968-.052a3.342,3.342,0,0,0-1.457.278l0-.033c.341-.215.71-.35,1.06-.538.955-.516,1.8-1.435,3-1.212A2.629,2.629,0,0,0,29.661.137ZM20.738.22a3.071,3.071,0,0,0-1.294.339c-1.1.525-1.549,1.788-1.9,2.932a5.022,5.022,0,0,1-.43.969,3.874,3.874,0,0,1,1.561-.816c1.29-.335,2.763-.849,3.3-2.1-.7.773-1.847.739-2.762,1.088a3.341,3.341,0,0,0-1.24.814l-.016-.029c.232-.329.523-.595.773-.9C19.41,1.667,19.836.5,21.037.24a2.048,2.048,0,0,0-.3-.02Zm7.395,0a4.893,4.893,0,0,0-3.021,1.357c-1.056,1.056-1.186,2.4-2.1,3.468C24.2,4.167,25.805,4.3,27.165,3.84a5.136,5.136,0,0,0,1.48-.813,1.765,1.765,0,0,1-.757.148c-1.138-.03-2.373-.173-3.29.479a3.933,3.933,0,0,1-.4.275c-.037-.014-.008-.044-.011-.061l1.046-.9C26.254,2.089,26.809.533,28.194.247c-.015-.022-.04-.018-.062-.025ZM31.359.69a3.226,3.226,0,0,0-.667.078,17.627,17.627,0,0,0-1.928.866,13.349,13.349,0,0,0,2.309.1,14.171,14.171,0,0,1,2.9-.312A6.355,6.355,0,0,0,31.359.69Zm-13.047.436a.25.25,0,0,0-.05.007,4.893,4.893,0,0,0-2.271,2.409c-.571,1.379-.177,2.671-.614,4.008.764-1.267,2.3-1.757,3.377-2.7a5.135,5.135,0,0,0,1.056-1.318,1.765,1.765,0,0,1-.643.426c-1.063.407-2.259.748-2.856,1.7a3.932,3.932,0,0,1-.262.406c-.039,0-.024-.037-.034-.052l.621-1.232c.605-1.2.523-2.85,1.693-3.645a.041.041,0,0,0-.017-.006Zm6.183.687a5.418,5.418,0,0,0-1.014.564A6.352,6.352,0,0,0,21.61,4.623c-.559,1.029-.35,2.375-.683,3.5l.011.1A4.032,4.032,0,0,1,22.16,7.045c.773-.434,1.573-.806,2.311-1.319A7.553,7.553,0,0,0,26.1,4.354a3.389,3.389,0,0,1-.991.449c-1.349.29-2.854.708-3.523,2.119-.02,0-.046.005-.053-.016a10.78,10.78,0,0,1,.824-1.382c.721-1.234.785-2.8,2.135-3.71Zm-10.021.66a5.178,5.178,0,0,0-2.785,1.856A17.627,17.627,0,0,0,10.938,6.3a13.349,13.349,0,0,0,1.706-1.56,14.171,14.171,0,0,1,1.83-2.271Zm21.477.444a4.387,4.387,0,0,0-1.66.338c-1.379.571-2.014,1.764-3.268,2.4,1.436-.356,2.867.381,4.3.476A5.136,5.136,0,0,0,37,5.944a1.765,1.765,0,0,1-.756-.153c-1.04-.464-2.126-1.068-3.223-.816a3.933,3.933,0,0,1-.472.1c-.028-.027.01-.043.013-.061l1.311-.432c1.277-.421,2.385-1.645,3.775-1.38-.006-.026-.03-.032-.047-.047a5.923,5.923,0,0,0-1.649-.24Zm-2.464.316a6.767,6.767,0,0,0-1.009.136A6.352,6.352,0,0,0,29.89,4.728c-.911.737-1.232,2.06-1.97,2.969l-.027.094a4.031,4.031,0,0,1,1.578-.615c.88-.1,1.762-.142,2.64-.334A7.552,7.552,0,0,0,34.143,6.2a3.389,3.389,0,0,1-1.087.035c-1.358-.248-2.907-.438-4.066.609-.019-.005-.045-.013-.042-.035a10.78,10.78,0,0,1,1.29-.961c1.138-.864,1.8-2.287,3.392-2.611-.048,0-.1,0-.144,0Zm4.484.216a6.019,6.019,0,0,0-2.549.864,5.023,5.023,0,0,1-.989.381,3.874,3.874,0,0,1,1.681.527c1.149.675,2.554,1.353,3.822.846-1.043.051-1.828-.783-2.722-1.184a3.342,3.342,0,0,0-1.453-.3l.009-.032c.4-.069.79-.051,1.185-.092,1.08-.112,2.208-.639,3.239.03a2.794,2.794,0,0,0-1.352-.9,2.443,2.443,0,0,0-.871-.137Zm-26.257.416a2.794,2.794,0,0,0-1.35.9c-.818.907-.747,2.244-.638,3.437A5.023,5.023,0,0,1,9.7,9.267a3.874,3.874,0,0,1,1.129-1.351c1.063-.8,2.228-1.842,2.244-3.207-.352.983-1.423,1.39-2.135,2.062A3.341,3.341,0,0,0,10.1,8l-.026-.02c.089-.393.255-.75.369-1.13.31-1.04.255-2.285,1.268-2.981Zm3.8.13a5.417,5.417,0,0,0-.721.909A6.352,6.352,0,0,0,13.921,7.7c-.123,1.165.585,2.328.707,3.492l.047.085a4.031,4.031,0,0,1,.681-1.551c.549-.7,1.145-1.347,1.63-2.1a7.552,7.552,0,0,0,.983-1.891,3.389,3.389,0,0,1-.744.794c-1.135.785-2.365,1.746-2.444,3.306-.017.01-.041.022-.055,0a10.779,10.779,0,0,1,.233-1.592c.194-1.416-.347-2.888.552-4.245Zm14.066.521A5.258,5.258,0,0,0,27.622,5.6a5.3,5.3,0,0,0-1.395,2.517c-.276.979-.365,2.049-.6,2.933a8.764,8.764,0,0,1,.817-.849c1.434-1.057,3.372-1.6,4.566-2.9a9.985,9.985,0,0,1-2.5.7,3.884,3.884,0,0,0-1.72,1.071,3.071,3.071,0,0,1-.374.449,3.729,3.729,0,0,1,.535-.914c.957-1.327,1.1-3.338,2.62-4.1Zm-8.337.032A5.258,5.258,0,0,0,19.85,6.3a5.3,5.3,0,0,0-.325,2.86c.12,1.01.447,2.033.57,2.939a8.763,8.763,0,0,1,.43-1.1c.92-1.526,2.5-2.77,3.11-4.425A9.985,9.985,0,0,1,21.6,8.182,3.884,3.884,0,0,0,20.416,9.83a3.071,3.071,0,0,1-.174.558,3.73,3.73,0,0,1,.145-1.049c.376-1.592-.259-3.506.852-4.79Zm17.983.057c-.53.009-1.052.129-1.579.1a13.347,13.347,0,0,0,2.094.979,14.171,14.171,0,0,1,2.8.822,5.178,5.178,0,0,0-2.78-1.863,2.816,2.816,0,0,0-.533-.037ZM9.554,5.726c-.026,0-.041.016-.062.026A4.893,4.893,0,0,0,8.315,8.847c0,1.493.859,2.536.966,3.938.221-1.463,1.449-2.5,2.085-3.79a5.136,5.136,0,0,0,.471-1.621,1.765,1.765,0,0,1-.431.64c-.826.783-1.8,1.556-1.988,2.665a3.93,3.93,0,0,1-.087.475c-.036.016-.036-.026-.051-.036l.1-1.376c.1-1.341-.608-2.833.17-4.015ZM26.332,6.844a5.546,5.546,0,0,0-2.21,3.686c-.256,1.351.385,2.68.485,4.021.428-1.454,1.68-2.166,2.636-3.132A8.79,8.79,0,0,0,28.69,9.274c-.914,1.055-2.5,1.422-3.283,2.622a6.186,6.186,0,0,0-.582,1.253l-.02-.008a3.956,3.956,0,0,1,.207-.987c.547-1.761-.13-3.789,1.32-5.309Zm13.151.81a7.578,7.578,0,0,0-1.984.339c-1.123.332-1.927,1.432-2.956,1.989l-.061.076a4.031,4.031,0,0,1,1.693.035c.853.24,1.682.543,2.567.7a7.552,7.552,0,0,0,2.124.184,3.389,3.389,0,0,1-1.018-.383c-1.159-.749-2.519-1.517-3.989-.993-.016-.012-.036-.029-.026-.049a10.781,10.781,0,0,1,1.56-.394c1.382-.363,2.536-1.425,4.133-1.114a5.418,5.418,0,0,0-1.116-.318,4.567,4.567,0,0,0-.927-.073Zm-2.763,0a4.855,4.855,0,0,0-1.65.276,5.3,5.3,0,0,0-2.252,1.792c-.63.8-1.121,1.753-1.675,2.481a8.764,8.764,0,0,1,1.08-.471c1.729-.428,3.728-.189,5.328-.93a9.984,9.984,0,0,1-2.577-.306,3.884,3.884,0,0,0-2,.332,3.071,3.071,0,0,1-.517.272,3.73,3.73,0,0,1,.844-.639c1.392-.86,2.3-2.662,3.99-2.785-.188-.015-.379-.023-.571-.022ZM13.55,7.767a5.258,5.258,0,0,0-.614,2.149,5.3,5.3,0,0,0,.794,2.766c.5.888,1.19,1.707,1.651,2.5A8.765,8.765,0,0,1,15.358,14c.266-1.761,1.252-3.517,1.18-5.278a9.985,9.985,0,0,1-1.269,2.264,3.884,3.884,0,0,0-.459,1.974,3.07,3.07,0,0,1,.053.581,3.729,3.729,0,0,1-.267-1.024c-.261-1.615-1.581-3.14-1.046-4.752Zm5.584.173a5.546,5.546,0,0,0-.632,4.251c.281,1.346,1.382,2.328,1.987,3.529-.161-1.507.723-2.644,1.236-3.9a8.789,8.789,0,0,0,.517-2.535c-.441,1.325-1.77,2.272-2.03,3.678a6.185,6.185,0,0,0-.058,1.38h-.022a3.956,3.956,0,0,1-.187-.991c-.169-1.836-1.571-3.451-.812-5.41Zm23,.375c-1.493,0-2.536.859-3.938.966,1.463.221,2.5,1.449,3.79,2.085a5.136,5.136,0,0,0,1.621.471,1.766,1.766,0,0,1-.64-.431c-.783-.826-1.556-1.8-2.665-1.988a3.93,3.93,0,0,1-.475-.087c-.016-.036.025-.036.035-.051l1.376.1c1.341.1,2.833-.608,4.016.17,0-.026-.016-.041-.026-.062a4.893,4.893,0,0,0-3.095-1.177ZM6.5,8.44A5.179,5.179,0,0,0,4.642,11.22,17.626,17.626,0,0,0,4.7,13.333a13.349,13.349,0,0,0,.979-2.094A14.171,14.171,0,0,1,6.5,8.44Zm26.9.147a5.546,5.546,0,0,0-3.453,2.559c-.753,1.15-.669,2.623-1.091,3.9.952-1.18,2.381-1.359,3.633-1.885a8.79,8.79,0,0,0,2.158-1.427c-1.249.625-2.858.355-4.036,1.166a6.185,6.185,0,0,0-1.017.935l-.015-.015a3.957,3.957,0,0,1,.569-.833c1.179-1.418,1.33-3.551,3.251-4.4ZM8.045,9.449a5.418,5.418,0,0,0-.318,1.116,6.352,6.352,0,0,0,.265,2.911C8.325,14.6,9.425,15.4,9.982,16.432l.076.061a4.032,4.032,0,0,1,.035-1.693c.24-.853.543-1.682.7-2.567a7.552,7.552,0,0,0,.184-2.124,3.389,3.389,0,0,1-.383,1.018c-.749,1.159-1.517,2.518-.993,3.989-.012.016-.029.036-.049.026a10.78,10.78,0,0,1-.394-1.56C8.8,12.2,7.734,11.047,8.045,9.449Zm35.867.212c-.384,0-.77.031-1.143.065a5.023,5.023,0,0,1-1.06-.026,3.874,3.874,0,0,1,1.351,1.13c.8,1.063,1.841,2.228,3.207,2.244-.983-.352-1.39-1.423-2.062-2.135a3.342,3.342,0,0,0-1.227-.834L43,10.078c.393.089.75.255,1.13.369,1.04.31,2.285.255,2.981,1.268a2.794,2.794,0,0,0-.9-1.35,3.292,3.292,0,0,0-2.294-.7Zm-20.058.57a4.663,4.663,0,0,0-.989,3.226c.123,1.663,1.293,2.965,2.2,4.2.131.178.215.425.358.581a4.569,4.569,0,0,1,.061-2.481,23.956,23.956,0,0,0,1.17-3.432c-.664,1.11-1.974,1.89-1.925,3.4a4.08,4.08,0,0,1,.06.789,2.043,2.043,0,0,1-.2-.741c-.338-1.826-1.648-3.686-.737-5.536Zm5.963.536a4.663,4.663,0,0,0-2.148,2.6c-.523,1.584.06,3.234.429,4.722.053.214.036.475.109.674A4.569,4.569,0,0,1,29.213,16.5a23.959,23.959,0,0,0,2.395-2.723c-1.038.771-2.547.991-3.078,2.4a4.08,4.08,0,0,1-.246.752,2.042,2.042,0,0,1,.1-.762c.387-1.817-.111-4.036,1.438-5.4Zm-25.329.014a2.8,2.8,0,0,0-.9,1.352c-.409,1.151.169,2.359.726,3.42a5.022,5.022,0,0,1,.381.989,3.874,3.874,0,0,1,.527-1.68c.675-1.149,1.353-2.554.846-3.822.051,1.043-.783,1.828-1.184,2.722a3.342,3.342,0,0,0-.3,1.453l-.032-.009c-.069-.4-.051-.79-.092-1.185-.112-1.08-.639-2.209.03-3.239Zm40.183.156a13.347,13.347,0,0,0,1.56,1.706,14.172,14.172,0,0,1,2.271,1.83,5.179,5.179,0,0,0-1.856-2.785,17.625,17.625,0,0,0-1.975-.751Zm-31.77.77a5.546,5.546,0,0,0,1.043,4.169c.774,1.136,2.167,1.622,3.186,2.5-.726-1.331-.344-2.72-.351-4.078a8.79,8.79,0,0,0-.493-2.54c.1,1.393-.766,2.777-.468,4.175a6.187,6.187,0,0,0,.474,1.3l-.02.008a3.956,3.956,0,0,1-.552-.844c-.859-1.632-2.772-2.587-2.821-4.688Zm5.239.31a4.663,4.663,0,0,0,.321,3.359c.75,1.489,2.329,2.244,3.643,3.035.189.114.361.31.554.4a4.569,4.569,0,0,1-.893-2.316,23.957,23.957,0,0,0-.232-3.619c-.189,1.28-1.1,2.5-.479,3.874a4.081,4.081,0,0,1,.357.706,2.043,2.043,0,0,1-.471-.607c-1.011-1.558-2.933-2.775-2.8-4.833Zm20.328.789a6.115,6.115,0,0,0-3.37,1.138c-1.136.774-1.622,2.167-2.5,3.186,1.331-.726,2.72-.344,4.078-.351a8.789,8.789,0,0,0,2.54-.493c-1.393.1-2.777-.766-4.175-.467a6.186,6.186,0,0,0-1.3.474l-.008-.02a3.956,3.956,0,0,1,.844-.552c1.632-.859,2.587-2.772,4.688-2.821a3.686,3.686,0,0,0-.8-.095Zm2.405.127a5.451,5.451,0,0,0-2.581.8c-.888.5-1.707,1.19-2.5,1.651a8.763,8.763,0,0,1,1.178-.022c1.761.266,3.517,1.252,5.278,1.18a9.984,9.984,0,0,1-2.264-1.269,3.884,3.884,0,0,0-1.974-.459,3.07,3.07,0,0,1-.581.053,3.73,3.73,0,0,1,1.025-.267c1.615-.261,3.14-1.581,4.752-1.046a5.258,5.258,0,0,0-2.149-.614q-.093,0-.185,0Zm-13.5.228a4.1,4.1,0,0,0-1.238,1.8,4.273,4.273,0,0,0,.562,3.759c.488.764,1.18,1.418,1.18,2.327A5.007,5.007,0,0,1,26.3,24.067a6.917,6.917,0,0,0-.137-4.169,10.263,10.263,0,0,0-2.57-3.117,3.932,3.932,0,0,1-1.076-3.4,4.1,4.1,0,0,0-.453,2.141,4.273,4.273,0,0,0,1.958,3.258c.743.519,1.633.859,1.981,1.7a5.006,5.006,0,0,1-.307,3.391,6.917,6.917,0,0,0-1.722-3.8,10.262,10.262,0,0,0-3.567-1.9,3.932,3.932,0,0,1-2.3-2.732,4.1,4.1,0,0,0,.4,2.151,4.273,4.273,0,0,0,3.055,2.261,4.62,4.62,0,0,1,2.48.811,5.007,5.007,0,0,1,1.014,3.25,6.917,6.917,0,0,0-3.045-2.851,10.262,10.262,0,0,0-4.021-.387,3.932,3.932,0,0,1-3.167-1.645,4.1,4.1,0,0,0,1.193,1.834,4.273,4.273,0,0,0,3.688.92,4.62,4.62,0,0,1,2.6-.2,5.006,5.006,0,0,1,2.18,2.615,6.917,6.917,0,0,0-3.9-1.469,10.262,10.262,0,0,0-3.863,1.182,3.932,3.932,0,0,1-3.556-.308,4.1,4.1,0,0,0,1.8,1.238,4.273,4.273,0,0,0,3.759-.562c.764-.488,1.418-1.18,2.327-1.18a5.006,5.006,0,0,1,3.015,1.581,6.917,6.917,0,0,0-4.169.137,10.262,10.262,0,0,0-3.117,2.57,3.932,3.932,0,0,1-3.4,1.076,4.1,4.1,0,0,0,2.141.453,4.273,4.273,0,0,0,3.258-1.957c.519-.743.859-1.633,1.7-1.981a5.007,5.007,0,0,1,3.391.307,6.917,6.917,0,0,0-3.8,1.722,10.262,10.262,0,0,0-1.9,3.567,3.932,3.932,0,0,1-2.732,2.3,4.1,4.1,0,0,0,2.151-.4,4.273,4.273,0,0,0,2.261-3.055,4.621,4.621,0,0,1,.811-2.48,5.007,5.007,0,0,1,3.25-1.014,6.917,6.917,0,0,0-2.851,3.045,10.262,10.262,0,0,0-.387,4.021,3.932,3.932,0,0,1-1.645,3.167,4.1,4.1,0,0,0,1.834-1.193,4.273,4.273,0,0,0,.92-3.688,4.62,4.62,0,0,1-.2-2.6,5.006,5.006,0,0,1,2.615-2.18,6.917,6.917,0,0,0-1.469,3.9,10.262,10.262,0,0,0,1.182,3.863,3.932,3.932,0,0,1-.308,3.556,4.1,4.1,0,0,0,1.238-1.8,4.273,4.273,0,0,0-.562-3.759c-.488-.764-1.18-1.418-1.18-2.327a5.006,5.006,0,0,1,1.581-3.015,6.917,6.917,0,0,0,.137,4.169,10.262,10.262,0,0,0,2.57,3.117,3.932,3.932,0,0,1,1.076,3.4,4.1,4.1,0,0,0,.453-2.141A4.273,4.273,0,0,0,26.959,32.2c-.743-.519-1.633-.859-1.981-1.7a5.007,5.007,0,0,1,.307-3.391,6.917,6.917,0,0,0,1.722,3.8,10.262,10.262,0,0,0,3.567,1.9,3.932,3.932,0,0,1,2.3,2.732,4.1,4.1,0,0,0-.4-2.151,4.273,4.273,0,0,0-3.055-2.261,4.621,4.621,0,0,1-2.48-.811,5.006,5.006,0,0,1-1.014-3.25,6.917,6.917,0,0,0,3.045,2.851,10.262,10.262,0,0,0,4.021.387,3.932,3.932,0,0,1,3.167,1.645,4.1,4.1,0,0,0-1.193-1.834,4.273,4.273,0,0,0-3.688-.92,4.62,4.62,0,0,1-2.6.2,5.006,5.006,0,0,1-2.18-2.615,6.917,6.917,0,0,0,3.9,1.469,10.262,10.262,0,0,0,3.863-1.182,3.932,3.932,0,0,1,3.556.308,4.1,4.1,0,0,0-1.8-1.238,4.273,4.273,0,0,0-3.759.562c-.764.488-1.418,1.18-2.327,1.18A5.006,5.006,0,0,1,26.909,26.3a6.917,6.917,0,0,0,4.169-.137,10.262,10.262,0,0,0,3.117-2.57,3.932,3.932,0,0,1,3.4-1.076,4.1,4.1,0,0,0-2.141-.453A4.273,4.273,0,0,0,32.2,24.017c-.519.743-.859,1.633-1.7,1.981a5.006,5.006,0,0,1-3.391-.307,6.917,6.917,0,0,0,3.8-1.722,10.262,10.262,0,0,0,1.9-3.567,3.932,3.932,0,0,1,2.732-2.3,4.1,4.1,0,0,0-2.151.4,4.273,4.273,0,0,0-2.261,3.055,4.62,4.62,0,0,1-.811,2.48,5.007,5.007,0,0,1-3.25,1.014,6.917,6.917,0,0,0,2.851-3.045,10.262,10.262,0,0,0,.387-4.021,3.932,3.932,0,0,1,1.645-3.167,4.1,4.1,0,0,0-1.834,1.193,4.273,4.273,0,0,0-.92,3.688,4.62,4.62,0,0,1,.2,2.6,5.006,5.006,0,0,1-2.615,2.18,6.917,6.917,0,0,0,1.469-3.9,10.262,10.262,0,0,0-1.182-3.863,3.932,3.932,0,0,1,.308-3.556ZM3.2,13.328c-.026.006-.032.03-.047.048a4.893,4.893,0,0,0,.1,3.31c.571,1.379,1.764,2.014,2.4,3.268-.356-1.436.381-2.867.476-4.3a5.136,5.136,0,0,0-.185-1.678,1.765,1.765,0,0,1-.153.756c-.464,1.04-1.068,2.126-.816,3.223a3.931,3.931,0,0,1,.1.472c-.027.028-.043-.01-.061-.013L4.584,17.1c-.421-1.277-1.645-2.385-1.38-3.775Zm7.6.1A9.985,9.985,0,0,1,10.5,16a3.884,3.884,0,0,0,.332,2,3.07,3.07,0,0,1,.272.517,3.73,3.73,0,0,1-.639-.844c-.86-1.392-2.662-2.3-2.785-3.99a5.258,5.258,0,0,0,.255,2.221,5.3,5.3,0,0,0,1.792,2.252c.8.63,1.753,1.121,2.481,1.675a8.763,8.763,0,0,1-.471-1.08c-.428-1.729-.189-3.728-.93-5.328Zm24.317.12a4.663,4.663,0,0,0-2.981,1.582c-1.089,1.263-1.182,3.011-1.41,4.527-.033.218-.148.453-.157.664a4.569,4.569,0,0,1,1.8-1.711,23.959,23.959,0,0,0,3.254-1.6c-1.254.315-2.732-.059-3.762,1.04a4.082,4.082,0,0,1-.515.6,2.042,2.042,0,0,1,.38-.667c1.053-1.53,1.442-3.772,3.394-4.436Zm7.832.362c-1.055.019-2.11.611-3.165.721l-.085.047a4.032,4.032,0,0,1,1.551.681c.7.549,1.347,1.145,2.1,1.63a7.552,7.552,0,0,0,1.892.983,3.389,3.389,0,0,1-.794-.744c-.785-1.135-1.746-2.365-3.305-2.444-.01-.017-.022-.041-.005-.055a10.782,10.782,0,0,1,1.592.233c1.416.194,2.888-.347,4.245.552a5.418,5.418,0,0,0-.909-.721,6.352,6.352,0,0,0-2.791-.869,2.671,2.671,0,0,0-.328-.014ZM17.008,15.351c.315,1.254-.059,2.732,1.04,3.762a4.08,4.08,0,0,1,.6.515,2.042,2.042,0,0,1-.667-.38c-1.53-1.053-3.772-1.442-4.436-3.394a4.663,4.663,0,0,0,1.582,2.981c1.263,1.089,3.011,1.182,4.527,1.41.218.033.453.148.664.157a4.569,4.569,0,0,1-1.711-1.8,23.956,23.956,0,0,0-1.6-3.254Zm26.418.025c1.267.764,1.757,2.3,2.7,3.377a5.136,5.136,0,0,0,1.318,1.056,1.765,1.765,0,0,1-.426-.643c-.407-1.063-.748-2.259-1.7-2.856a3.932,3.932,0,0,1-.406-.262c0-.039.037-.024.052-.034l1.232.621c1.2.605,2.85.523,3.645,1.693.014-.023,0-.044,0-.067a4.893,4.893,0,0,0-2.409-2.271h0c-1.379-.571-2.671-.177-4.008-.614Zm-31.692.948c.625,1.249.355,2.858,1.166,4.036a6.185,6.185,0,0,0,.935,1.017l-.015.015a3.956,3.956,0,0,1-.833-.569c-1.418-1.179-3.551-1.33-4.4-3.251a5.546,5.546,0,0,0,2.559,3.452c1.15.753,2.623.669,3.9,1.091-1.18-.952-1.359-2.381-1.885-3.633a8.789,8.789,0,0,0-1.427-2.158ZM6.2,16.832a3.389,3.389,0,0,1,.035,1.087c-.248,1.358-.438,2.907.609,4.066-.005.019-.013.045-.035.042a10.78,10.78,0,0,1-.961-1.29c-.864-1.138-2.287-1.8-2.611-3.392A5.418,5.418,0,0,0,3.369,18.5a6.352,6.352,0,0,0,1.359,2.588c.737.911,2.06,1.232,2.969,1.97l.094.027A4.032,4.032,0,0,1,7.175,21.5c-.1-.88-.142-1.762-.334-2.64A7.552,7.552,0,0,0,6.2,16.832ZM1.426,17a5.178,5.178,0,0,0-.657,3.282,17.627,17.627,0,0,0,.866,1.928,13.348,13.348,0,0,0,.1-2.309A14.172,14.172,0,0,1,1.426,17Zm45.091.107a3.875,3.875,0,0,1,.816,1.561c.335,1.29.849,2.763,2.1,3.3-.773-.7-.739-1.847-1.087-2.762a3.341,3.341,0,0,0-.814-1.24l.029-.016c.329.232.595.523.9.773.843.685,2.013,1.11,2.269,2.312a2.8,2.8,0,0,0-.319-1.594c-.525-1.1-1.788-1.549-2.932-1.9a5.024,5.024,0,0,1-.969-.43Zm-8.843.851a4.892,4.892,0,0,0-2.075.5c-1.489.75-2.244,2.329-3.035,3.643-.114.189-.31.361-.4.554a4.569,4.569,0,0,1,2.316-.893,23.958,23.958,0,0,0,3.619-.232c-1.28-.189-2.5-1.1-3.874-.479a4.08,4.08,0,0,1-.706.357,2.042,2.042,0,0,1,.607-.471c1.558-1.011,2.775-2.933,4.833-2.8a3.972,3.972,0,0,0-1.285-.18Zm2.49.389a7.239,7.239,0,0,0-1.379.152c-1.346.281-2.328,1.382-3.529,1.987,1.507-.161,2.644.723,3.9,1.237a8.79,8.79,0,0,0,2.535.517c-1.325-.441-2.272-1.77-3.678-2.03a6.187,6.187,0,0,0-1.38-.058v-.022a3.957,3.957,0,0,1,.991-.187c1.836-.169,3.451-1.571,5.41-.812a4.821,4.821,0,0,0-2.872-.784ZM13.774,19.368c.771,1.038.991,2.547,2.4,3.078a4.08,4.08,0,0,1,.752.246,2.042,2.042,0,0,1-.762-.1c-1.817-.387-4.036.111-5.4-1.438a4.663,4.663,0,0,0,2.6,2.148c1.584.523,3.234-.06,4.722-.429.214-.053.475-.036.674-.109A4.569,4.569,0,0,1,16.5,21.763a23.958,23.958,0,0,0-2.723-2.395Zm35,.019a13.348,13.348,0,0,0,.789,2.173,14.172,14.172,0,0,1,1.4,2.56,5.178,5.178,0,0,0-.649-3.283,17.626,17.626,0,0,0-1.538-1.45Zm-6.047.079a7.894,7.894,0,0,0-.914.059c-1.01.12-2.033.447-2.939.57a8.767,8.767,0,0,1,1.1.43c1.526.92,2.77,2.5,4.425,3.109A9.984,9.984,0,0,1,42.794,21.6a3.884,3.884,0,0,0-1.648-1.179,3.07,3.07,0,0,1-.558-.173,3.73,3.73,0,0,1,1.049.145c1.592.376,3.506-.259,4.79.852a5.258,5.258,0,0,0-1.751-1.39,4.624,4.624,0,0,0-1.945-.384Zm-40.716.107c.446.944-.024,1.989-.052,2.968A3.342,3.342,0,0,0,2.241,24l-.033,0c-.215-.341-.35-.71-.538-1.06-.516-.955-1.435-1.8-1.212-3a2.794,2.794,0,0,0-.315,1.594c.063,1.219,1.059,2.115,1.98,2.882a5.023,5.023,0,0,1,.731.768A3.874,3.874,0,0,1,2.7,23.427c.184-1.32.273-2.877-.681-3.855Zm5.29.39a9.985,9.985,0,0,1,.7,2.5,3.884,3.884,0,0,0,1.071,1.72,3.07,3.07,0,0,1,.449.374,3.73,3.73,0,0,1-.914-.535c-1.327-.957-3.338-1.1-4.1-2.62A5.258,5.258,0,0,0,5.6,23.353a5.3,5.3,0,0,0,2.518,1.395c.979.276,2.049.365,2.933.6a8.763,8.763,0,0,1-.848-.817c-1.057-1.434-1.6-3.372-2.9-4.566Zm35.55.964-.1.011a4.031,4.031,0,0,1,1.172,1.222c.434.773.806,1.573,1.319,2.311A7.552,7.552,0,0,0,46.622,26.1a3.39,3.39,0,0,1-.449-.991c-.29-1.349-.708-2.854-2.119-3.523,0-.02,0-.046.016-.053a10.781,10.781,0,0,1,1.382.824c1.234.721,2.8.785,3.71,2.135a5.418,5.418,0,0,0-.564-1.014,6.352,6.352,0,0,0-2.246-1.871c-1.029-.559-2.375-.35-3.5-.684ZM9.274,22.286c1.055.914,1.422,2.5,2.622,3.283a6.185,6.185,0,0,0,1.253.582l-.008.02a3.956,3.956,0,0,1-.987-.207c-1.761-.547-3.789.13-5.309-1.32a5.546,5.546,0,0,0,3.686,2.21c1.351.256,2.68-.385,4.021-.485-1.454-.428-2.166-1.68-3.132-2.636a8.79,8.79,0,0,0-2.145-1.448Zm-6.248.046a1.765,1.765,0,0,1,.148.757c-.03,1.138-.173,2.373.479,3.29a3.933,3.933,0,0,1,.275.4c-.014.037-.044.007-.061.011l-.9-1.046C2.089,24.722.533,24.167.247,22.781c-.022.015-.018.04-.025.062a4.893,4.893,0,0,0,1.357,3.02c1.056,1.056,2.4,1.186,3.468,2.1-.878-1.191-.745-2.794-1.206-4.154a5.136,5.136,0,0,0-.813-1.48Zm34.9.524c-.14,0-.277,0-.411.011-1.663.123-2.965,1.293-4.2,2.2-.178.131-.425.215-.581.358a4.569,4.569,0,0,1,2.481.061,23.958,23.958,0,0,0,3.432,1.17c-1.11-.664-1.89-1.974-3.4-1.925a4.08,4.08,0,0,1-.789.06,2.042,2.042,0,0,1,.741-.2c1.826-.338,3.686-1.648,5.537-.737A4.609,4.609,0,0,0,37.929,22.855Zm8,.156c.878,1.191.745,2.794,1.206,4.154a5.136,5.136,0,0,0,.813,1.48,1.766,1.766,0,0,1-.148-.757c.03-1.138.173-2.373-.479-3.29a3.935,3.935,0,0,1-.275-.4c.014-.037.044-.008.061-.011l.9,1.046c.878,1.019,2.433,1.574,2.719,2.959.022-.015.018-.04.025-.062A4.893,4.893,0,0,0,49.4,25.112c-1.056-1.056-2.4-1.186-3.468-2.1Zm-6.116,1.052c-1.135-.009-2.258.461-3.389.545,1.454.428,2.166,1.68,3.132,2.636A8.789,8.789,0,0,0,41.7,28.69c-1.055-.914-1.422-2.5-2.621-3.283a6.186,6.186,0,0,0-1.253-.582l.008-.02a3.957,3.957,0,0,1,.987.207c1.761.547,3.789-.131,5.309,1.32a5.546,5.546,0,0,0-3.686-2.21A3.535,3.535,0,0,0,39.814,24.062Zm-27.49.254c1.11.664,1.89,1.974,3.4,1.925a4.08,4.08,0,0,1,.789-.06,2.042,2.042,0,0,1-.741.2c-1.826.338-3.686,1.648-5.537.737a4.663,4.663,0,0,0,3.226.989c1.663-.123,2.965-1.293,4.2-2.2.178-.131.425-.215.581-.359a4.569,4.569,0,0,1-2.481-.061,23.956,23.956,0,0,0-3.432-1.17Zm-7.97.557a3.389,3.389,0,0,1,.449.991c.29,1.349.708,2.854,2.119,3.523,0,.02.005.046-.016.053a10.781,10.781,0,0,1-1.382-.824c-1.234-.721-2.8-.785-3.71-2.135a5.418,5.418,0,0,0,.564,1.014,6.352,6.352,0,0,0,2.246,1.871c1.029.559,2.375.35,3.5.684l.1-.011a4.032,4.032,0,0,1-1.172-1.222c-.434-.773-.806-1.573-1.319-2.311a7.552,7.552,0,0,0-1.371-1.632Zm35.57.756a8.764,8.764,0,0,1,.848.817c1.057,1.434,1.6,3.372,2.9,4.566a9.984,9.984,0,0,1-.7-2.5,3.884,3.884,0,0,0-1.071-1.72,3.07,3.07,0,0,1-.449-.374,3.73,3.73,0,0,1,.914.535c1.327.957,3.338,1.1,4.1,2.62a4.646,4.646,0,0,0-3.6-3.349c-.979-.276-2.049-.365-2.933-.6Zm8.2.165a3.875,3.875,0,0,1,.157,1.754c-.184,1.32-.273,2.877.681,3.855-.446-.944.024-1.989.052-2.968a3.342,3.342,0,0,0-.278-1.457l.033,0c.215.341.35.71.538,1.06.517.955,1.435,1.8,1.212,3a2.8,2.8,0,0,0,.315-1.594c-.063-1.219-1.059-2.115-1.98-2.882a5.024,5.024,0,0,1-.731-.768ZM.01,26.856a5.178,5.178,0,0,0,.649,3.283A17.627,17.627,0,0,0,2.2,31.589a13.348,13.348,0,0,0-.789-2.173A14.17,14.17,0,0,1,.01,26.856Zm6.565.486A9.984,9.984,0,0,1,8.182,29.38,3.884,3.884,0,0,0,9.83,30.559a3.07,3.07,0,0,1,.558.174,3.73,3.73,0,0,1-1.049-.145c-1.592-.376-3.506.259-4.79-.852A5.258,5.258,0,0,0,6.3,31.126a5.3,5.3,0,0,0,2.86.325c1.01-.12,2.033-.447,2.939-.57a8.764,8.764,0,0,1-1.1-.43c-1.526-.92-2.77-2.5-4.425-3.11Zm29.684.119a14.113,14.113,0,0,0-3.375.637c-.214.053-.475.036-.674.109a4.569,4.569,0,0,1,2.269,1.006A23.956,23.956,0,0,0,37.2,31.608c-.771-1.038-.991-2.547-2.4-3.078a4.081,4.081,0,0,1-.752-.246,2.042,2.042,0,0,1,.762.1c1.817.387,4.036-.111,5.4,1.438a4.663,4.663,0,0,0-2.6-2.148,4.306,4.306,0,0,0-1.347-.208Zm6.926.433a4.031,4.031,0,0,1,.615,1.578c.1.88.142,1.762.334,2.64a7.552,7.552,0,0,0,.643,2.032,3.389,3.389,0,0,1-.035-1.087c.248-1.358.438-2.907-.609-4.066.005-.019.013-.045.035-.042a10.78,10.78,0,0,1,.961,1.29c.864,1.138,2.287,1.8,2.611,3.392a5.418,5.418,0,0,0-.133-1.152,6.352,6.352,0,0,0-1.359-2.588c-.737-.91-2.06-1.232-2.969-1.97l-.094-.027Zm-24.373.425a4.569,4.569,0,0,1-2.316.893,23.956,23.956,0,0,0-3.619.232c1.28.189,2.5,1.1,3.874.479a4.08,4.08,0,0,1,.706-.357,2.042,2.042,0,0,1-.607.471c-1.558,1.011-2.775,2.933-4.833,2.8a4.663,4.663,0,0,0,3.359-.321c1.489-.75,2.244-2.329,3.035-3.643.114-.189.31-.361.4-.553Zm-9.529.416c1.325.441,2.272,1.77,3.678,2.029a6.187,6.187,0,0,0,1.38.058v.022a3.957,3.957,0,0,1-.991.187c-1.836.169-3.451,1.571-5.41.812a5.546,5.546,0,0,0,4.251.632c1.346-.281,2.328-1.382,3.529-1.987-1.507.161-2.644-.723-3.9-1.236a8.789,8.789,0,0,0-2.535-.517Zm40.058.03a13.35,13.35,0,0,0-.1,2.309,14.171,14.171,0,0,1,.312,2.9,5.179,5.179,0,0,0,.657-3.282A17.627,17.627,0,0,0,49.341,28.764Zm-13.411.1c1.18.952,1.359,2.381,1.885,3.633a8.789,8.789,0,0,0,1.427,2.158c-.625-1.249-.355-2.858-1.166-4.036a6.186,6.186,0,0,0-.935-1.017l.015-.015a3.956,3.956,0,0,1,.833.569c1.418,1.179,3.551,1.33,4.4,3.251A5.546,5.546,0,0,0,39.83,29.95c-1.15-.753-2.623-.669-3.9-1.091Zm-34.391.146c.773.7.739,1.847,1.087,2.762a3.342,3.342,0,0,0,.814,1.24l-.029.016c-.329-.232-.595-.523-.9-.773C1.667,31.566.5,31.14.24,29.938a2.794,2.794,0,0,0,.319,1.594c.525,1.1,1.788,1.549,2.932,1.9a5.023,5.023,0,0,1,.969.43,3.874,3.874,0,0,1-.816-1.561c-.335-1.29-.849-2.763-2.1-3.3Zm29.119,1.567a4.569,4.569,0,0,1,1.711,1.8,23.957,23.957,0,0,0,1.6,3.254c-.315-1.254.059-2.732-1.04-3.762a4.08,4.08,0,0,1-.6-.515,2.042,2.042,0,0,1,.667.38c1.53,1.053,3.772,1.442,4.436,3.394a4.663,4.663,0,0,0-1.582-2.981c-1.263-1.089-3.011-1.182-4.527-1.41-.218-.033-.453-.148-.664-.157ZM20.4,30.658a4.569,4.569,0,0,1-1.8,1.711,23.957,23.957,0,0,0-3.254,1.6c1.254-.315,2.732.059,3.762-1.04a4.079,4.079,0,0,1,.515-.6,2.042,2.042,0,0,1-.38.667c-1.053,1.53-1.442,3.772-3.394,4.436a4.663,4.663,0,0,0,2.981-1.582c1.089-1.263,1.182-3.011,1.41-4.527.033-.218.148-.453.157-.664Zm24.919.365c.356,1.436-.381,2.867-.476,4.3A5.135,5.135,0,0,0,45.031,37a1.765,1.765,0,0,1,.153-.756c.464-1.04,1.068-2.126.816-3.223a3.932,3.932,0,0,1-.1-.472c.027-.028.043.01.061.013l.432,1.311c.421,1.277,1.645,2.385,1.38,3.775.026-.006.032-.03.047-.047a4.893,4.893,0,0,0-.1-3.31c-.571-1.379-1.764-2.014-2.4-3.268Zm-6.552.121a8.765,8.765,0,0,1,.471,1.08c.428,1.729.189,3.728.93,5.328a9.984,9.984,0,0,1,.306-2.577,3.884,3.884,0,0,0-.332-2,3.069,3.069,0,0,1-.272-.517,3.73,3.73,0,0,1,.639.844c.86,1.392,2.662,2.3,2.785,3.99a4.645,4.645,0,0,0-2.047-4.473C40.453,32.188,39.5,31.7,38.771,31.143Zm-35.242.024a1.765,1.765,0,0,1,.426.643c.407,1.063.748,2.259,1.7,2.856a3.932,3.932,0,0,1,.406.262c0,.039-.037.024-.052.034L4.777,34.34c-1.2-.605-2.85-.523-3.645-1.693-.015.023,0,.044,0,.067a4.893,4.893,0,0,0,2.409,2.272h0c1.379.571,2.671.177,4.008.614-1.267-.764-1.757-2.3-2.7-3.377a5.136,5.136,0,0,0-1.318-1.056Zm24.79,1a4.569,4.569,0,0,1,.893,2.316,23.957,23.957,0,0,0,.232,3.619c.189-1.28,1.1-2.5.479-3.874a4.079,4.079,0,0,1-.357-.706,2.042,2.042,0,0,1,.471.607c1.011,1.558,2.933,2.775,2.8,4.833a4.663,4.663,0,0,0-.321-3.359c-.75-1.489-2.329-2.244-3.643-3.035-.189-.114-.361-.31-.553-.4Zm-5.549.046a4.569,4.569,0,0,1-1.006,2.269A23.957,23.957,0,0,0,19.368,37.2c1.038-.771,2.547-.991,3.078-2.4a4.08,4.08,0,0,1,.246-.752,2.042,2.042,0,0,1-.1.762c-.387,1.817.112,4.036-1.438,5.4a4.663,4.663,0,0,0,2.148-2.6c.523-1.584-.06-3.234-.429-4.722-.053-.214-.036-.475-.109-.674Zm11.076.389c.726,1.331.344,2.719.351,4.078a8.79,8.79,0,0,0,.493,2.54c-.1-1.393.766-2.777.468-4.175a6.186,6.186,0,0,0-.474-1.3l.02-.008a3.956,3.956,0,0,1,.552.844c.859,1.632,2.772,2.587,2.821,4.688A5.546,5.546,0,0,0,37.031,35.1c-.774-1.136-2.167-1.622-3.186-2.5Zm-8.3.14a4.569,4.569,0,0,1-.061,2.481,23.958,23.958,0,0,0-1.17,3.432c.664-1.11,1.974-1.89,1.925-3.4a4.081,4.081,0,0,1-.06-.789,2.042,2.042,0,0,1,.2.741c.338,1.826,1.648,3.686.737,5.537a4.663,4.663,0,0,0,.989-3.226c-.123-1.663-1.293-2.965-2.2-4.2-.131-.178-.215-.425-.358-.581Zm-19.821.269a3.389,3.389,0,0,1,.794.744c.785,1.135,1.746,2.366,3.306,2.444.01.017.022.041.005.055a10.781,10.781,0,0,1-1.592-.233c-1.416-.194-2.888.347-4.245-.552a5.417,5.417,0,0,0,.909.721,6.352,6.352,0,0,0,2.791.869c1.165.123,2.328-.585,3.492-.707l.086-.047a4.032,4.032,0,0,1-1.551-.681c-.7-.549-1.347-1.145-2.1-1.63a7.552,7.552,0,0,0-1.891-.983Zm12.649.837c-1.331.726-2.72.344-4.078.351a8.789,8.789,0,0,0-2.54.493c1.393-.1,2.777.766,4.175.468a6.186,6.186,0,0,0,1.3-.474l.008.02a3.956,3.956,0,0,1-.844.552c-1.632.859-2.587,2.772-4.688,2.821a5.546,5.546,0,0,0,4.169-1.043C17.013,36.257,17.5,34.863,18.377,33.845Zm27.9.588a3.874,3.874,0,0,1-.527,1.681c-.675,1.149-1.353,2.554-.846,3.822-.051-1.043.783-1.828,1.184-2.722a3.342,3.342,0,0,0,.3-1.453l.032.009c.069.4.051.79.092,1.185.112,1.08.639,2.208-.03,3.239a2.794,2.794,0,0,0,.9-1.352c.409-1.15-.169-2.359-.726-3.42a5.023,5.023,0,0,1-.381-.989Zm-37.392,0q-.083,0-.165,0a9.984,9.984,0,0,1,2.264,1.269,3.884,3.884,0,0,0,1.974.459,3.071,3.071,0,0,1,.581-.053,3.73,3.73,0,0,1-1.025.267c-1.615.261-3.14,1.581-4.752,1.046a5.258,5.258,0,0,0,2.149.614,5.3,5.3,0,0,0,2.766-.794c.888-.5,1.707-1.191,2.5-1.651A8.764,8.764,0,0,1,14,35.618C12.3,35.36,10.6,34.427,8.89,34.434Zm32.028.048a4.031,4.031,0,0,1-.035,1.693c-.24.853-.543,1.682-.7,2.567A7.553,7.553,0,0,0,40,40.866a3.389,3.389,0,0,1,.383-1.018c.749-1.159,1.517-2.518.993-3.989.012-.016.029-.036.049-.026a10.783,10.783,0,0,1,.394,1.56c.363,1.382,1.425,2.536,1.114,4.133a5.418,5.418,0,0,0,.318-1.116,6.352,6.352,0,0,0-.265-2.911c-.332-1.123-1.432-1.927-1.989-2.956l-.076-.061Zm-10.43.773c.161,1.507-.723,2.644-1.236,3.9a8.79,8.79,0,0,0-.517,2.535c.441-1.325,1.77-2.272,2.03-3.678a6.185,6.185,0,0,0,.058-1.38h.022a3.956,3.956,0,0,1,.187.991c.169,1.836,1.571,3.451.812,5.41a5.546,5.546,0,0,0,.632-4.251c-.281-1.346-1.382-2.328-1.987-3.529Zm5.108.54a8.763,8.763,0,0,1,.022,1.178c-.266,1.761-1.252,3.517-1.179,5.278a9.984,9.984,0,0,1,1.269-2.264,3.884,3.884,0,0,0,.459-1.974,3.07,3.07,0,0,1-.053-.581,3.73,3.73,0,0,1,.267,1.025c.261,1.615,1.581,3.14,1.046,4.752a4.646,4.646,0,0,0-.18-4.916c-.5-.888-1.191-1.707-1.651-2.5Zm-13.479.134c-.952,1.18-2.381,1.359-3.633,1.885a8.79,8.79,0,0,0-2.158,1.427c1.249-.625,2.858-.355,4.036-1.166a6.186,6.186,0,0,0,1.017-.935l.016.015a3.956,3.956,0,0,1-.569.833c-1.179,1.418-1.33,3.551-3.251,4.4a5.546,5.546,0,0,0,3.452-2.559c.753-1.15.669-2.623,1.091-3.9Zm4.253.5c-.428,1.454-1.68,2.166-2.636,3.132A8.789,8.789,0,0,0,22.286,41.7c.914-1.055,2.5-1.422,3.283-2.621a6.185,6.185,0,0,0,.582-1.253l.02.008a3.956,3.956,0,0,1-.207.987c-.547,1.761.13,3.789-1.32,5.309a5.546,5.546,0,0,0,2.21-3.686c.256-1.351-.385-2.68-.485-4.021Zm-23.9.077a5.178,5.178,0,0,0,1.856,2.785,17.627,17.627,0,0,0,1.976.751,13.349,13.349,0,0,0-1.56-1.706A14.172,14.172,0,0,1,2.473,36.5Zm43.8,1.141a13.347,13.347,0,0,0-.979,2.094,14.17,14.17,0,0,1-.822,2.8,5.178,5.178,0,0,0,1.863-2.78,17.621,17.621,0,0,0-.062-2.112ZM4.708,37.9c.983.352,1.39,1.423,2.062,2.135A3.341,3.341,0,0,0,8,40.872l-.02.026c-.393-.089-.75-.255-1.13-.369-1.04-.31-2.285-.255-2.981-1.268a2.794,2.794,0,0,0,.9,1.35c.907.818,2.244.747,3.437.638a5.023,5.023,0,0,1,1.06.026,3.875,3.875,0,0,1-1.351-1.13c-.8-1.063-1.842-2.228-3.207-2.244Zm36.987.289c-.221,1.463-1.449,2.5-2.085,3.79a5.136,5.136,0,0,0-.471,1.621,1.765,1.765,0,0,1,.431-.64c.826-.783,1.8-1.556,1.988-2.665a3.932,3.932,0,0,1,.087-.475c.036-.016.036.026.051.036l-.1,1.376c-.1,1.341.608,2.833-.17,4.016.026,0,.041-.016.062-.026a4.893,4.893,0,0,0,1.177-3.095C42.661,40.636,41.8,39.593,41.695,38.191Zm-21.862.579a8.763,8.763,0,0,1-1.08.471c-1.729.428-3.728.189-5.328.93A9.984,9.984,0,0,1,16,40.478a3.884,3.884,0,0,0,2-.332,3.07,3.07,0,0,1,.517-.272,3.73,3.73,0,0,1-.844.639c-1.392.86-2.3,2.662-3.99,2.785a5.258,5.258,0,0,0,2.221-.255,5.3,5.3,0,0,0,2.252-1.792C18.788,40.453,19.279,39.5,19.833,38.771Zm11.049.108a8.764,8.764,0,0,1-.43,1.1c-.92,1.526-2.5,2.77-3.11,4.425a9.985,9.985,0,0,1,2.039-1.606,3.884,3.884,0,0,0,1.179-1.648,3.07,3.07,0,0,1,.174-.557,3.73,3.73,0,0,1-.145,1.049c-.376,1.592.259,3.506-.852,4.79a4.645,4.645,0,0,0,1.715-4.61c-.12-1.01-.447-2.033-.57-2.939Zm-23.508.259a1.765,1.765,0,0,1,.64.431c.783.826,1.556,1.8,2.665,1.988a3.928,3.928,0,0,1,.475.087c.016.036-.026.036-.036.051l-1.376-.1c-1.341-.1-2.833.608-4.015-.17,0,.026.016.041.026.062A4.893,4.893,0,0,0,8.847,42.66c1.493,0,2.536-.859,3.938-.966-1.463-.221-2.5-1.449-3.79-2.085a5.135,5.135,0,0,0-1.621-.471ZM36.3,39.7a4.032,4.032,0,0,1-.681,1.551c-.549.7-1.145,1.347-1.63,2.1a7.553,7.553,0,0,0-.983,1.892,3.389,3.389,0,0,1,.744-.794c1.135-.785,2.366-1.746,2.444-3.306.017-.01.041-.022.055,0a10.779,10.779,0,0,1-.233,1.592c-.194,1.416.347,2.888-.552,4.245a5.418,5.418,0,0,0,.721-.909,6.352,6.352,0,0,0,.869-2.791c.123-1.165-.585-2.328-.707-3.492L36.3,39.7Zm-10.954.221a8.763,8.763,0,0,1-.817.848c-1.434,1.057-3.372,1.6-4.566,2.9a9.985,9.985,0,0,1,2.5-.7,3.884,3.884,0,0,0,1.72-1.071,3.07,3.07,0,0,1,.374-.449,3.729,3.729,0,0,1-.535.913c-.957,1.327-1.1,3.338-2.62,4.1a5.258,5.258,0,0,0,1.954-1.085,5.3,5.3,0,0,0,1.395-2.518C25.024,41.878,25.113,40.808,25.346,39.924Zm-14.853.05a3.428,3.428,0,0,0-.384.024,3.389,3.389,0,0,1,1.018.383c1.159.749,2.518,1.517,3.989.993.016.012.036.029.026.049a10.78,10.78,0,0,1-1.56.394c-1.382.363-2.536,1.425-4.133,1.114a5.417,5.417,0,0,0,1.116.318,6.352,6.352,0,0,0,2.911-.265c1.123-.332,1.927-1.432,2.956-1.989l.061-.076a4.032,4.032,0,0,1-1.693-.035c-.853-.24-1.682-.543-2.567-.7a9.737,9.737,0,0,0-1.739-.208Zm30.782,1.736a3.875,3.875,0,0,1-1.13,1.351c-1.063.8-2.228,1.841-2.244,3.207.352-.983,1.423-1.39,2.135-2.062a3.342,3.342,0,0,0,.834-1.227L40.9,43c-.089.393-.255.75-.369,1.13-.31,1.04-.255,2.285-1.268,2.981a2.794,2.794,0,0,0,1.35-.9c.818-.907.747-2.244.638-3.437a5.024,5.024,0,0,1,.026-1.06ZM30.038,42.759a4.031,4.031,0,0,1-1.222,1.172c-.773.434-1.573.806-2.311,1.319a7.553,7.553,0,0,0-1.632,1.372,3.39,3.39,0,0,1,.991-.449c1.349-.29,2.854-.708,3.523-2.119.02,0,.046,0,.053.016a10.782,10.782,0,0,1-.824,1.382c-.721,1.234-.785,2.8-2.135,3.71a5.418,5.418,0,0,0,1.014-.564,6.352,6.352,0,0,0,1.871-2.246c.559-1.029.35-2.375.684-3.5l-.011-.1Zm-6.956.427A4.031,4.031,0,0,1,21.5,43.8c-.88.1-1.762.143-2.64.334a7.552,7.552,0,0,0-2.032.643,3.389,3.389,0,0,1,1.087-.035c1.358.248,2.907.438,4.066-.609.019.005.045.013.042.035a10.781,10.781,0,0,1-1.29.961c-1.138.864-1.8,2.287-3.392,2.611a5.418,5.418,0,0,0,1.152-.133,6.352,6.352,0,0,0,2.588-1.359c.911-.737,1.232-2.06,1.97-2.969l.027-.094Zm12.517.241c-.764,1.267-2.3,1.757-3.377,2.7a5.136,5.136,0,0,0-1.056,1.318,1.765,1.765,0,0,1,.643-.426c1.063-.407,2.259-.748,2.856-1.7a3.934,3.934,0,0,1,.262-.406c.039,0,.024.037.034.052L34.34,46.2c-.605,1.2-.523,2.85-1.693,3.645.023.015.044,0,.067,0a4.893,4.893,0,0,0,2.271-2.409c.571-1.379.177-2.671.614-4.008ZM8.44,44.471a5.179,5.179,0,0,0,2.781,1.863,17.628,17.628,0,0,0,2.112-.062,13.347,13.347,0,0,0-2.094-.979,14.173,14.173,0,0,1-2.8-.822Zm31.6.2a13.348,13.348,0,0,0-1.706,1.56A14.172,14.172,0,0,1,36.5,48.5a5.178,5.178,0,0,0,2.785-1.856,17.63,17.63,0,0,0,.751-1.975Zm-28.026.061a2.529,2.529,0,0,0-.971.177c1.043-.051,1.828.783,2.722,1.184a3.342,3.342,0,0,0,1.453.3l-.009.032c-.4.069-.79.051-1.185.092-1.08.112-2.208.639-3.239-.03a2.8,2.8,0,0,0,1.352.9c1.151.409,2.359-.169,3.42-.726a5.022,5.022,0,0,1,.989-.381,3.875,3.875,0,0,1-1.681-.527,6.091,6.091,0,0,0-2.851-1.023Zm3.432.1a5.247,5.247,0,0,0-1.468.194,1.765,1.765,0,0,1,.756.153c1.04.464,2.126,1.068,3.223.816a3.936,3.936,0,0,1,.472-.1c.028.027-.01.043-.013.061l-1.311.432c-1.277.421-2.385,1.645-3.775,1.38.006.026.03.032.047.047a4.893,4.893,0,0,0,3.31-.1c1.379-.571,2.014-1.764,3.268-2.4-1.436.356-2.867-.381-4.3-.476q-.1-.007-.211-.009ZM27.965,45.93c-1.191.878-2.794.745-4.154,1.205a5.136,5.136,0,0,0-1.48.813,1.765,1.765,0,0,1,.757-.148c1.138.03,2.373.173,3.29-.479a3.93,3.93,0,0,1,.4-.275c.037.014.008.044.011.061l-1.046.9c-1.019.878-1.574,2.433-2.959,2.719.015.022.04.018.062.025a4.893,4.893,0,0,0,3.02-1.356c1.056-1.056,1.186-2.4,2.1-3.468Zm5.9.586a3.874,3.874,0,0,1-1.561.816c-1.29.335-2.763.849-3.3,2.1.7-.773,1.847-.739,2.762-1.087a3.342,3.342,0,0,0,1.24-.815l.016.029c-.232.329-.523.595-.773.9-.685.843-1.11,2.013-2.312,2.269a2.794,2.794,0,0,0,1.594-.319c1.1-.525,1.549-1.787,1.9-2.932A5.023,5.023,0,0,1,33.867,46.516Zm-8.685,1.606a3.874,3.874,0,0,1-1.754.157c-1.32-.184-2.877-.273-3.855.681.944-.446,1.989.024,2.968.052A3.342,3.342,0,0,0,24,48.734l0,.033c-.341.215-.71.35-1.06.538-.955.516-1.8,1.435-3,1.212a2.794,2.794,0,0,0,1.594.315c1.219-.063,2.115-1.059,2.882-1.98a5.023,5.023,0,0,1,.768-.731Zm6.407.657a13.349,13.349,0,0,0-2.173.789,14.171,14.171,0,0,1-2.56,1.4,5.178,5.178,0,0,0,3.283-.649A17.623,17.623,0,0,0,31.589,48.779Zm-11.1.426a3.856,3.856,0,0,0-.584.033,14.171,14.171,0,0,1-2.9.312,5.178,5.178,0,0,0,3.282.657,17.625,17.625,0,0,0,1.928-.866c-.583-.018-1.147-.128-1.725-.136Z" transform="translate(1 3.144)" fill="#fff" opacity="0.6"/></g></svg>